<mxfile host="app.diagrams.net" modified="2024-05-17T00:10:29.007Z" agent="Mozilla/5.0 (X11; Linux x86_64) AppleWebKit/537.36 (KHTML, like Gecko) Chrome/119.0.0.0 Safari/537.36" etag="Pqob98_qjiiBFir8-NV2" version="23.1.1" type="device" pages="7">
  <diagram name="Page-1" id="TFoWNDVmRyNQ4pTUuHoa">
    <mxGraphModel dx="1981" dy="1070" grid="1" gridSize="10" guides="1" tooltips="1" connect="1" arrows="1" fold="1" page="1" pageScale="1" pageWidth="827" pageHeight="1169" math="0" shadow="0">
      <root>
        <mxCell id="0" />
        <mxCell id="1" parent="0" />
        <mxCell id="G5xLqvD-v9-Sz-AbjlrO-1" value="&lt;div&gt;&lt;br&gt;&lt;/div&gt;&lt;div style=&quot;&quot;&gt;&lt;br&gt;&lt;/div&gt;" style="rounded=1;whiteSpace=wrap;html=1;align=left;fillColor=#fff2cc;strokeColor=#d6b656;" parent="1" vertex="1">
          <mxGeometry x="40" y="70" width="670" height="370" as="geometry" />
        </mxCell>
        <mxCell id="G5xLqvD-v9-Sz-AbjlrO-2" value="&lt;font style=&quot;font-size: 18px;&quot;&gt;select the best steps for induction in forward reasoning from the following premises:&lt;/font&gt;&lt;div style=&quot;font-size: 18px;&quot;&gt;&lt;font style=&quot;font-size: 18px;&quot;&gt;&lt;br&gt;&lt;/font&gt;&lt;/div&gt;&lt;div style=&quot;font-size: 18px;&quot;&gt;&lt;font style=&quot;font-size: 18px;&quot;&gt;Premises:&lt;/font&gt;&lt;/div&gt;&lt;div style=&quot;font-size: 18px;&quot;&gt;&lt;div&gt;&lt;font style=&quot;font-size: 18px;&quot;&gt;sent1: the gravitational pull of the moon on earth &#39;s oceans causes the tides&lt;/font&gt;&lt;/div&gt;&lt;div&gt;&lt;font style=&quot;font-size: 18px;&quot;&gt;sent2: the moon is a kind of moon&lt;/font&gt;&lt;/div&gt;&lt;div&gt;&lt;font style=&quot;font-size: 18px;&quot;&gt;...&lt;span style=&quot;white-space: pre;&quot;&gt;&#x9;&lt;/span&gt;&lt;br&gt;&lt;/font&gt;&lt;/div&gt;&lt;div&gt;&lt;font style=&quot;font-size: 18px;&quot;&gt;sent24: a moon is located in space&lt;/font&gt;&lt;/div&gt;&lt;div&gt;&lt;font style=&quot;font-size: 18px;&quot;&gt;&amp;nbsp;&lt;/font&gt;&lt;/div&gt;&lt;div&gt;&lt;font style=&quot;font-size: 18px;&quot;&gt;Hypothesis:&lt;/font&gt;&lt;/div&gt;&lt;div&gt;&lt;font style=&quot;font-size: 18px;&quot;&gt;the gravitational pull of the moon on earth affects the tides more than the gravitational pull of the sun&amp;nbsp; &amp;nbsp;&lt;/font&gt;&lt;/div&gt;&lt;/div&gt;&lt;div style=&quot;font-size: 18px;&quot;&gt;&lt;font style=&quot;font-size: 18px;&quot;&gt;&lt;br&gt;&lt;/font&gt;&lt;/div&gt;&lt;div style=&quot;font-size: 18px;&quot;&gt;&lt;font style=&quot;font-size: 18px;&quot;&gt;proof steps:&lt;/font&gt;&lt;br&gt;&lt;/div&gt;" style="text;html=1;align=left;verticalAlign=middle;whiteSpace=wrap;rounded=0;" parent="1" vertex="1">
          <mxGeometry x="110" y="160" width="520" height="190" as="geometry" />
        </mxCell>
        <mxCell id="G5xLqvD-v9-Sz-AbjlrO-3" value="&lt;font style=&quot;font-size: 18px;&quot;&gt;Flan-T5&lt;/font&gt;" style="rounded=0;whiteSpace=wrap;html=1;fillColor=#d5e8d4;strokeColor=#82b366;" parent="1" vertex="1">
          <mxGeometry x="392.5" y="490" width="125" height="50" as="geometry" />
        </mxCell>
        <mxCell id="G5xLqvD-v9-Sz-AbjlrO-5" value="" style="endArrow=classic;html=1;rounded=0;exitX=0.5;exitY=1;exitDx=0;exitDy=0;entryX=0.5;entryY=0;entryDx=0;entryDy=0;" parent="1" source="G5xLqvD-v9-Sz-AbjlrO-3" target="G5xLqvD-v9-Sz-AbjlrO-6" edge="1">
          <mxGeometry width="50" height="50" relative="1" as="geometry">
            <mxPoint x="470" y="640" as="sourcePoint" />
            <mxPoint x="445" y="710" as="targetPoint" />
          </mxGeometry>
        </mxCell>
        <mxCell id="G5xLqvD-v9-Sz-AbjlrO-6" value="&lt;font style=&quot;font-size: 18px;&quot;&gt;sent10 &amp;amp; sent23&lt;/font&gt;" style="rounded=1;whiteSpace=wrap;html=1;fillColor=#f8cecc;strokeColor=#b85450;" parent="1" vertex="1">
          <mxGeometry x="380" y="575" width="150" height="40" as="geometry" />
        </mxCell>
        <mxCell id="G5xLqvD-v9-Sz-AbjlrO-11" value="" style="group" parent="1" vertex="1" connectable="0">
          <mxGeometry x="80" y="460" width="210" height="190" as="geometry" />
        </mxCell>
        <mxCell id="G5xLqvD-v9-Sz-AbjlrO-9" value="" style="rounded=1;whiteSpace=wrap;html=1;fillColor=#dae8fc;strokeColor=#6c8ebf;" parent="G5xLqvD-v9-Sz-AbjlrO-11" vertex="1">
          <mxGeometry width="210" height="190" as="geometry" />
        </mxCell>
        <mxCell id="G5xLqvD-v9-Sz-AbjlrO-10" value="&lt;font style=&quot;font-size: 18px;&quot;&gt;At test and validation time we use &lt;b style=&quot;&quot;&gt;b&lt;/b&gt;&lt;span style=&quot;background-color: initial;&quot;&gt;&lt;b&gt;eam search&lt;/b&gt;:&lt;/span&gt;&lt;/font&gt;&lt;div style=&quot;font-size: 18px;&quot;&gt;&lt;font style=&quot;font-size: 18px;&quot;&gt;&lt;br&gt;&lt;/font&gt;&lt;/div&gt;&lt;div style=&quot;font-size: 18px;&quot;&gt;&lt;font style=&quot;font-size: 18px;&quot;&gt;sent10 &amp;amp; sent23&lt;/font&gt;&lt;/div&gt;&lt;div style=&quot;font-size: 18px;&quot;&gt;&lt;font style=&quot;font-size: 18px;&quot;&gt;sent23 &amp;amp; sent10&lt;/font&gt;&lt;/div&gt;&lt;div style=&quot;font-size: 18px;&quot;&gt;&lt;font style=&quot;font-size: 18px;&quot;&gt;sent8 &amp;amp; sent14&lt;/font&gt;&lt;/div&gt;&lt;div style=&quot;font-size: 18px;&quot;&gt;&lt;font style=&quot;font-size: 18px;&quot;&gt;...&lt;/font&gt;&lt;/div&gt;" style="text;html=1;align=left;verticalAlign=middle;whiteSpace=wrap;rounded=0;" parent="G5xLqvD-v9-Sz-AbjlrO-11" vertex="1">
          <mxGeometry x="10" y="10" width="180" height="170" as="geometry" />
        </mxCell>
        <mxCell id="G5xLqvD-v9-Sz-AbjlrO-12" value="" style="endArrow=classic;html=1;rounded=0;exitX=0.619;exitY=0.994;exitDx=0;exitDy=0;exitPerimeter=0;entryX=0.5;entryY=0;entryDx=0;entryDy=0;" parent="1" source="G5xLqvD-v9-Sz-AbjlrO-1" target="G5xLqvD-v9-Sz-AbjlrO-3" edge="1">
          <mxGeometry width="50" height="50" relative="1" as="geometry">
            <mxPoint x="465" y="550" as="sourcePoint" />
            <mxPoint x="450" y="490" as="targetPoint" />
          </mxGeometry>
        </mxCell>
      </root>
    </mxGraphModel>
  </diagram>
  <diagram id="xWOe7MCYlQI_TZ3HTbcg" name="Page-2">
    <mxGraphModel dx="1981" dy="1070" grid="1" gridSize="10" guides="1" tooltips="1" connect="1" arrows="1" fold="1" page="1" pageScale="1" pageWidth="827" pageHeight="1169" math="0" shadow="0">
      <root>
        <mxCell id="0" />
        <mxCell id="1" parent="0" />
        <mxCell id="OWre18zLJHfBN9_sZTNC-3" value="&lt;font style=&quot;font-size: 18px;&quot;&gt;Flan-T5&lt;/font&gt;" style="rounded=0;whiteSpace=wrap;html=1;fillColor=#d5e8d4;strokeColor=#82b366;" parent="1" vertex="1">
          <mxGeometry x="312.5" y="490" width="125" height="50" as="geometry" />
        </mxCell>
        <mxCell id="OWre18zLJHfBN9_sZTNC-4" value="" style="endArrow=classic;html=1;rounded=0;exitX=0.5;exitY=1;exitDx=0;exitDy=0;entryX=0.5;entryY=0;entryDx=0;entryDy=0;" parent="1" source="OWre18zLJHfBN9_sZTNC-3" target="OWre18zLJHfBN9_sZTNC-5" edge="1">
          <mxGeometry width="50" height="50" relative="1" as="geometry">
            <mxPoint x="470" y="640" as="sourcePoint" />
            <mxPoint x="445" y="710" as="targetPoint" />
          </mxGeometry>
        </mxCell>
        <mxCell id="OWre18zLJHfBN9_sZTNC-5" value="&lt;span style=&quot;font-size: 18px; text-align: left;&quot;&gt;metal atoms tend to lose electrons&lt;/span&gt;" style="rounded=1;whiteSpace=wrap;html=1;fillColor=#f8cecc;strokeColor=#b85450;" parent="1" vertex="1">
          <mxGeometry x="210" y="575" width="330" height="40" as="geometry" />
        </mxCell>
        <mxCell id="OWre18zLJHfBN9_sZTNC-9" value="" style="endArrow=classic;html=1;rounded=0;exitX=0.5;exitY=1;exitDx=0;exitDy=0;entryX=0.5;entryY=0;entryDx=0;entryDy=0;" parent="1" source="OWre18zLJHfBN9_sZTNC-1" target="OWre18zLJHfBN9_sZTNC-3" edge="1">
          <mxGeometry width="50" height="50" relative="1" as="geometry">
            <mxPoint x="465" y="550" as="sourcePoint" />
            <mxPoint x="450" y="490" as="targetPoint" />
          </mxGeometry>
        </mxCell>
        <mxCell id="OWre18zLJHfBN9_sZTNC-10" value="" style="group" parent="1" vertex="1" connectable="0">
          <mxGeometry x="100" y="270" width="550" height="190" as="geometry" />
        </mxCell>
        <mxCell id="OWre18zLJHfBN9_sZTNC-1" value="&lt;div&gt;&lt;br&gt;&lt;/div&gt;&lt;div style=&quot;&quot;&gt;&lt;br&gt;&lt;/div&gt;" style="rounded=1;whiteSpace=wrap;html=1;align=left;fillColor=#fff2cc;strokeColor=#d6b656;" parent="OWre18zLJHfBN9_sZTNC-10" vertex="1">
          <mxGeometry width="550" height="190" as="geometry" />
        </mxCell>
        <mxCell id="OWre18zLJHfBN9_sZTNC-2" value="&lt;font style=&quot;font-size: 18px;&quot;&gt;given premises perform an induction step:&lt;/font&gt;&lt;div style=&quot;font-size: 18px;&quot;&gt;&lt;span style=&quot;background-color: initial;&quot;&gt;&lt;br&gt;&lt;/span&gt;&lt;/div&gt;&lt;div style=&quot;&quot;&gt;&lt;span style=&quot;font-size: 18px;&quot;&gt;atoms with one or two valence electrons tend to lose those electrons [AND] metal atoms usually have one or two valence electrons [INFER]&amp;nbsp;&lt;/span&gt;&lt;br&gt;&lt;/div&gt;" style="text;html=1;align=left;verticalAlign=middle;whiteSpace=wrap;rounded=0;" parent="OWre18zLJHfBN9_sZTNC-10" vertex="1">
          <mxGeometry x="57.46268656716417" y="46.21621621621622" width="426.86567164179104" height="97.56756756756756" as="geometry" />
        </mxCell>
      </root>
    </mxGraphModel>
  </diagram>
  <diagram id="knJ1T2fo1C0AWDQCNXdo" name="Page-3">
    <mxGraphModel dx="2808" dy="2239" grid="1" gridSize="10" guides="1" tooltips="1" connect="1" arrows="1" fold="1" page="1" pageScale="1" pageWidth="827" pageHeight="1169" math="0" shadow="0">
      <root>
        <mxCell id="0" />
        <mxCell id="1" parent="0" />
        <mxCell id="NhglnOipoEF32Bt77Swo-3" value="" style="group" parent="1" vertex="1" connectable="0">
          <mxGeometry x="90" y="-220" width="670" height="870" as="geometry" />
        </mxCell>
        <mxCell id="rEH0hxBbT_C6z6d4wnF4-1" value="" style="rounded=0;whiteSpace=wrap;html=1;align=left;fillColor=#f5f5f5;fontColor=#333333;strokeColor=#666666;" parent="NhglnOipoEF32Bt77Swo-3" vertex="1">
          <mxGeometry y="50" width="630" height="760" as="geometry" />
        </mxCell>
        <mxCell id="NhglnOipoEF32Bt77Swo-2" value="&lt;div style=&quot;font-size: 18px;&quot;&gt;&lt;font style=&quot;font-size: 18px;&quot;&gt;sent1: the spinal cord is a part of the central nervous system&lt;/font&gt;&lt;/div&gt;&lt;div style=&quot;font-size: 18px;&quot;&gt;&lt;font style=&quot;font-size: 18px;&quot;&gt;sent2: the brain is a part of the body&lt;/font&gt;&lt;/div&gt;&lt;div style=&quot;font-size: 18px;&quot;&gt;&lt;font style=&quot;font-size: 18px;&quot;&gt;sent3: an animal &#39;s brain controls that animal&lt;/font&gt;&lt;/div&gt;&lt;div style=&quot;font-size: 18px;&quot;&gt;&lt;font style=&quot;font-size: 18px;&quot;&gt;sent4: if something performs a task then that task is that something &#39;s function&lt;/font&gt;&lt;/div&gt;&lt;div style=&quot;font-size: 18px;&quot;&gt;&lt;font style=&quot;font-size: 18px;&quot;&gt;sent5: the skeletal system is used to give structure for the body of animals&lt;/font&gt;&lt;/div&gt;&lt;div style=&quot;font-size: 18px;&quot;&gt;&lt;font style=&quot;font-size: 18px;&quot;&gt;sent6: the muscular system contains muscles&lt;/font&gt;&lt;/div&gt;&lt;div style=&quot;font-size: 18px;&quot;&gt;&lt;font style=&quot;font-size: 18px;&quot;&gt;sent7: nerves can be used to feel heat and pressure on the skin&lt;/font&gt;&lt;/div&gt;&lt;div style=&quot;font-size: 18px;&quot;&gt;&lt;font style=&quot;font-size: 18px;&quot;&gt;sent8: system means a set of objects&lt;/font&gt;&lt;/div&gt;&lt;div style=&quot;font-size: 18px;&quot;&gt;&lt;font style=&quot;font-size: 18px;&quot;&gt;sent9: physical fitness is similar to athletic ability&lt;/font&gt;&lt;/div&gt;&lt;div style=&quot;font-size: 18px;&quot;&gt;&lt;font style=&quot;font-size: 18px;&quot;&gt;sent10: to control something can mean to coordinate something&lt;/font&gt;&lt;/div&gt;&lt;div style=&quot;font-size: 18px;&quot;&gt;&lt;font style=&quot;font-size: 18px;&quot;&gt;sent11: the skeletal system is a kind of body system&lt;/font&gt;&lt;/div&gt;&lt;div style=&quot;font-size: 18px;&quot;&gt;&lt;font style=&quot;font-size: 18px;&quot;&gt;sent12: the brain can control animal body through the nervous system&lt;/font&gt;&lt;/div&gt;&lt;div style=&quot;font-size: 18px;&quot;&gt;&lt;font style=&quot;font-size: 18px;&quot;&gt;sent13: a body system is a part of the body&lt;/font&gt;&lt;/div&gt;&lt;div style=&quot;font-size: 18px;&quot;&gt;&lt;font style=&quot;font-size: 18px;&quot;&gt;sent14: a skeletal system is a part of an animal&lt;/font&gt;&lt;/div&gt;&lt;div style=&quot;font-size: 18px;&quot;&gt;&lt;font style=&quot;font-size: 18px;&quot;&gt;sent15: skeletal system is made of bones&lt;/font&gt;&lt;/div&gt;&lt;div style=&quot;font-size: 18px;&quot;&gt;&lt;font style=&quot;font-size: 18px;&quot;&gt;sent16: if an organism can do something , then that organism is able to do that something&lt;/font&gt;&lt;/div&gt;&lt;div style=&quot;font-size: 18px;&quot;&gt;&lt;font style=&quot;font-size: 18px;&quot;&gt;sent17: a person is a kind of animal&lt;/font&gt;&lt;/div&gt;&lt;div style=&quot;font-size: 18px;&quot;&gt;&lt;font style=&quot;font-size: 18px;&quot;&gt;sent18: the muscular system is a kind of body system&lt;/font&gt;&lt;/div&gt;&lt;div style=&quot;font-size: 18px;&quot;&gt;&lt;font style=&quot;font-size: 18px;&quot;&gt;sent19: the function of something is what that something is used to do&lt;/font&gt;&lt;/div&gt;&lt;div style=&quot;font-size: 18px;&quot;&gt;&lt;font style=&quot;font-size: 18px;&quot;&gt;sent20: the skeletal system is used to provide protection / shape / support for animals&lt;/font&gt;&lt;/div&gt;&lt;div style=&quot;font-size: 18px;&quot;&gt;&lt;font style=&quot;font-size: 18px;&quot;&gt;sent21: the nervous system sends observations in the form of electrical signals to the rest of the body&lt;/font&gt;&lt;/div&gt;&lt;div style=&quot;font-size: 18px;&quot;&gt;&lt;font style=&quot;font-size: 18px;&quot;&gt;sent22: if something has the ability to do something else , then that something can do that something else&lt;/font&gt;&lt;/div&gt;&lt;div style=&quot;font-size: 18px;&quot;&gt;&lt;font style=&quot;font-size: 18px;&quot;&gt;sent23: internal organs are a part of the body&lt;/font&gt;&lt;/div&gt;&lt;div style=&quot;font-size: 18px;&quot;&gt;&lt;font style=&quot;font-size: 18px;&quot;&gt;sent24: organ system means body system&lt;/font&gt;&lt;/div&gt;&lt;div style=&quot;font-size: 18px;&quot;&gt;&lt;font style=&quot;font-size: 18px;&quot;&gt;sent25: motion / movement means moving / to move&lt;/font&gt;&lt;/div&gt;&lt;div style=&quot;font-size: 18px;&quot;&gt;&lt;font style=&quot;font-size: 18px;&quot;&gt;&lt;br&gt;&lt;/font&gt;&lt;/div&gt;&lt;div style=&quot;font-size: 18px;&quot;&gt;&lt;font style=&quot;font-size: 18px;&quot;&gt;Hypothesis: the nervous system is used for coordinating the muscles&lt;/font&gt;&lt;/div&gt;" style="text;html=1;align=left;verticalAlign=middle;whiteSpace=wrap;rounded=0;" parent="NhglnOipoEF32Bt77Swo-3" vertex="1">
          <mxGeometry x="28.78" y="31.07" width="601.22" height="818.93" as="geometry" />
        </mxCell>
        <mxCell id="NhglnOipoEF32Bt77Swo-8" value="" style="group" parent="1" vertex="1" connectable="0">
          <mxGeometry x="-310" y="-100" width="340" height="140" as="geometry" />
        </mxCell>
        <mxCell id="NhglnOipoEF32Bt77Swo-4" value="" style="rounded=1;whiteSpace=wrap;html=1;fillColor=#d5e8d4;strokeColor=#82b366;" parent="NhglnOipoEF32Bt77Swo-8" vertex="1">
          <mxGeometry x="-20" y="40" width="340" height="90" as="geometry" />
        </mxCell>
        <mxCell id="NhglnOipoEF32Bt77Swo-7" value="&lt;font style=&quot;font-size: 18px;&quot;&gt;the muscular system is a part of the body (-0.06)&lt;/font&gt;" style="text;html=1;align=center;verticalAlign=middle;whiteSpace=wrap;rounded=0;" parent="NhglnOipoEF32Bt77Swo-8" vertex="1">
          <mxGeometry x="28.333333333333332" y="35" width="283.3333333333333" height="81.66666666666667" as="geometry" />
        </mxCell>
        <mxCell id="NhglnOipoEF32Bt77Swo-15" value="" style="group" parent="1" vertex="1" connectable="0">
          <mxGeometry x="-320" y="100" width="340" height="140" as="geometry" />
        </mxCell>
        <mxCell id="NhglnOipoEF32Bt77Swo-16" value="" style="rounded=1;whiteSpace=wrap;html=1;fillColor=#f8cecc;strokeColor=#b85450;" parent="NhglnOipoEF32Bt77Swo-15" vertex="1">
          <mxGeometry x="-10" y="30" width="330" height="90" as="geometry" />
        </mxCell>
        <mxCell id="NhglnOipoEF32Bt77Swo-17" value="&lt;font style=&quot;font-size: 18px;&quot;&gt;the muscular system is a kind of body system that contains muscles&lt;/font&gt;&lt;div&gt;&lt;font style=&quot;font-size: 18px;&quot;&gt;(-0.36)&lt;/font&gt;&lt;/div&gt;" style="text;html=1;align=center;verticalAlign=middle;whiteSpace=wrap;rounded=0;" parent="NhglnOipoEF32Bt77Swo-15" vertex="1">
          <mxGeometry x="28.333333333333332" y="35" width="283.3333333333333" height="81.66666666666667" as="geometry" />
        </mxCell>
        <mxCell id="NhglnOipoEF32Bt77Swo-18" value="" style="group" parent="1" vertex="1" connectable="0">
          <mxGeometry x="-320" y="280" width="340" height="140" as="geometry" />
        </mxCell>
        <mxCell id="NhglnOipoEF32Bt77Swo-19" value="" style="rounded=1;whiteSpace=wrap;html=1;fillColor=#fff2cc;strokeColor=#d6b656;" parent="NhglnOipoEF32Bt77Swo-18" vertex="1">
          <mxGeometry x="-10" y="40" width="330" height="70" as="geometry" />
        </mxCell>
        <mxCell id="NhglnOipoEF32Bt77Swo-20" value="&lt;span style=&quot;font-size: 18px;&quot;&gt;the muscular system is a part of the body (-0.36)&lt;/span&gt;" style="text;html=1;align=center;verticalAlign=middle;whiteSpace=wrap;rounded=0;" parent="NhglnOipoEF32Bt77Swo-18" vertex="1">
          <mxGeometry x="28.333333333333332" y="35" width="283.3333333333333" height="81.66666666666667" as="geometry" />
        </mxCell>
        <mxCell id="NhglnOipoEF32Bt77Swo-21" value="" style="endArrow=classic;html=1;rounded=0;entryX=1;entryY=0.5;entryDx=0;entryDy=0;exitX=-0.008;exitY=0.438;exitDx=0;exitDy=0;exitPerimeter=0;strokeWidth=5;fillColor=#d5e8d4;strokeColor=#82b366;" parent="1" source="NhglnOipoEF32Bt77Swo-2" target="NhglnOipoEF32Bt77Swo-4" edge="1">
          <mxGeometry width="50" height="50" relative="1" as="geometry">
            <mxPoint x="80" y="170" as="sourcePoint" />
            <mxPoint x="190" y="140" as="targetPoint" />
          </mxGeometry>
        </mxCell>
        <mxCell id="NhglnOipoEF32Bt77Swo-22" value="" style="endArrow=classic;html=1;rounded=0;strokeWidth=5;fillColor=#d5e8d4;strokeColor=#82b366;exitX=-0.006;exitY=0.594;exitDx=0;exitDy=0;exitPerimeter=0;" parent="1" source="NhglnOipoEF32Bt77Swo-2" edge="1">
          <mxGeometry width="50" height="50" relative="1" as="geometry">
            <mxPoint x="80" y="210" as="sourcePoint" />
            <mxPoint x="10" y="10" as="targetPoint" />
          </mxGeometry>
        </mxCell>
        <mxCell id="NhglnOipoEF32Bt77Swo-24" value="" style="endArrow=classic;html=1;rounded=0;strokeWidth=5;fillColor=#f8cecc;strokeColor=#b85450;entryX=0.994;entryY=0.64;entryDx=0;entryDy=0;entryPerimeter=0;" parent="1" target="NhglnOipoEF32Bt77Swo-16" edge="1">
          <mxGeometry width="50" height="50" relative="1" as="geometry">
            <mxPoint x="110" y="300" as="sourcePoint" />
            <mxPoint x="10" y="190" as="targetPoint" />
          </mxGeometry>
        </mxCell>
        <mxCell id="NhglnOipoEF32Bt77Swo-25" value="" style="endArrow=classic;html=1;rounded=0;strokeWidth=5;fillColor=#f8cecc;strokeColor=#b85450;exitX=0;exitY=0.25;exitDx=0;exitDy=0;entryX=1;entryY=0.5;entryDx=0;entryDy=0;" parent="1" source="NhglnOipoEF32Bt77Swo-2" target="NhglnOipoEF32Bt77Swo-16" edge="1">
          <mxGeometry width="50" height="50" relative="1" as="geometry">
            <mxPoint x="120" y="310" as="sourcePoint" />
            <mxPoint x="20" y="200" as="targetPoint" />
          </mxGeometry>
        </mxCell>
        <mxCell id="NhglnOipoEF32Bt77Swo-28" value="" style="endArrow=classic;html=1;rounded=0;strokeWidth=5;fillColor=#fff2cc;strokeColor=#d6b656;entryX=1;entryY=0.75;entryDx=0;entryDy=0;exitX=-0.008;exitY=0.599;exitDx=0;exitDy=0;exitPerimeter=0;" parent="1" source="NhglnOipoEF32Bt77Swo-2" target="NhglnOipoEF32Bt77Swo-19" edge="1">
          <mxGeometry width="50" height="50" relative="1" as="geometry">
            <mxPoint x="120" y="310" as="sourcePoint" />
            <mxPoint x="8" y="198" as="targetPoint" />
          </mxGeometry>
        </mxCell>
        <mxCell id="NhglnOipoEF32Bt77Swo-29" value="" style="endArrow=classic;html=1;rounded=0;strokeWidth=5;fillColor=#fff2cc;strokeColor=#d6b656;entryX=1;entryY=0;entryDx=0;entryDy=0;" parent="1" target="NhglnOipoEF32Bt77Swo-19" edge="1">
          <mxGeometry width="50" height="50" relative="1" as="geometry">
            <mxPoint x="120" y="20" as="sourcePoint" />
            <mxPoint x="10" y="185" as="targetPoint" />
          </mxGeometry>
        </mxCell>
        <mxCell id="NhglnOipoEF32Bt77Swo-30" value="" style="endArrow=classic;html=1;rounded=0;entryX=1;entryY=0.25;entryDx=0;entryDy=0;strokeWidth=5;fillColor=#fff2cc;strokeColor=#d6b656;" parent="1" target="NhglnOipoEF32Bt77Swo-19" edge="1">
          <mxGeometry width="50" height="50" relative="1" as="geometry">
            <mxPoint x="120" y="170" as="sourcePoint" />
            <mxPoint x="20" y="-10" as="targetPoint" />
          </mxGeometry>
        </mxCell>
      </root>
    </mxGraphModel>
  </diagram>
  <diagram id="eCPI2o-6bRQ5yCUzjcQ6" name="Page-5">
    <mxGraphModel dx="2191" dy="1928" grid="1" gridSize="10" guides="1" tooltips="1" connect="1" arrows="1" fold="1" page="1" pageScale="1" pageWidth="827" pageHeight="1169" math="0" shadow="0">
      <root>
        <mxCell id="0" />
        <mxCell id="1" parent="0" />
        <mxCell id="rYCxm83LX6yjBRyUvIbf-1" value="" style="group" parent="1" vertex="1" connectable="0">
          <mxGeometry x="90" y="-220" width="670" height="870" as="geometry" />
        </mxCell>
        <mxCell id="rYCxm83LX6yjBRyUvIbf-2" value="" style="rounded=0;whiteSpace=wrap;html=1;align=left;fillColor=#f5f5f5;fontColor=#333333;strokeColor=#666666;" parent="rYCxm83LX6yjBRyUvIbf-1" vertex="1">
          <mxGeometry y="50" width="630" height="760" as="geometry" />
        </mxCell>
        <mxCell id="rYCxm83LX6yjBRyUvIbf-3" value="&lt;div style=&quot;font-size: 18px;&quot;&gt;&lt;font style=&quot;font-size: 18px;&quot;&gt;sent1: the spinal cord is a part of the central nervous system&lt;/font&gt;&lt;/div&gt;&lt;div style=&quot;font-size: 18px;&quot;&gt;&lt;font style=&quot;font-size: 18px;&quot;&gt;sent2: the brain is a part of the body&lt;/font&gt;&lt;/div&gt;&lt;div style=&quot;font-size: 18px;&quot;&gt;&lt;font style=&quot;font-size: 18px;&quot;&gt;sent3: an animal &#39;s brain controls that animal&lt;/font&gt;&lt;/div&gt;&lt;div style=&quot;font-size: 18px;&quot;&gt;&lt;font style=&quot;font-size: 18px;&quot;&gt;sent4: if something performs a task then that task is that something &#39;s function&lt;/font&gt;&lt;/div&gt;&lt;div style=&quot;font-size: 18px;&quot;&gt;&lt;font style=&quot;font-size: 18px;&quot;&gt;sent5: the skeletal system is used to give structure for the body of animals&lt;/font&gt;&lt;/div&gt;&lt;div style=&quot;font-size: 18px;&quot;&gt;&lt;font style=&quot;font-size: 18px;&quot;&gt;sent6: the muscular system contains muscles&lt;/font&gt;&lt;/div&gt;&lt;div style=&quot;font-size: 18px;&quot;&gt;&lt;font style=&quot;font-size: 18px;&quot;&gt;sent7: nerves can be used to feel heat and pressure on the skin&lt;/font&gt;&lt;/div&gt;&lt;div style=&quot;font-size: 18px;&quot;&gt;&lt;font style=&quot;font-size: 18px;&quot;&gt;sent8: system means a set of objects&lt;/font&gt;&lt;/div&gt;&lt;div style=&quot;font-size: 18px;&quot;&gt;&lt;font style=&quot;font-size: 18px;&quot;&gt;sent9: physical fitness is similar to athletic ability&lt;/font&gt;&lt;/div&gt;&lt;div style=&quot;font-size: 18px;&quot;&gt;&lt;font style=&quot;font-size: 18px;&quot;&gt;sent10: to control something can mean to coordinate something&lt;/font&gt;&lt;/div&gt;&lt;div style=&quot;font-size: 18px;&quot;&gt;&lt;font style=&quot;font-size: 18px;&quot;&gt;sent11: the skeletal system is a kind of body system&lt;/font&gt;&lt;/div&gt;&lt;div style=&quot;font-size: 18px;&quot;&gt;&lt;font style=&quot;font-size: 18px;&quot;&gt;sent12: the brain can control animal body through the nervous system&lt;/font&gt;&lt;/div&gt;&lt;div style=&quot;font-size: 18px;&quot;&gt;&lt;font style=&quot;font-size: 18px;&quot;&gt;sent13: a body system is a part of the body&lt;/font&gt;&lt;/div&gt;&lt;div style=&quot;font-size: 18px;&quot;&gt;&lt;font style=&quot;font-size: 18px;&quot;&gt;sent14: a skeletal system is a part of an animal&lt;/font&gt;&lt;/div&gt;&lt;div style=&quot;font-size: 18px;&quot;&gt;&lt;font style=&quot;font-size: 18px;&quot;&gt;sent15: skeletal system is made of bones&lt;/font&gt;&lt;/div&gt;&lt;div style=&quot;font-size: 18px;&quot;&gt;&lt;font style=&quot;font-size: 18px;&quot;&gt;sent16: if an organism can do something , then that organism is able to do that something&lt;/font&gt;&lt;/div&gt;&lt;div style=&quot;font-size: 18px;&quot;&gt;&lt;font style=&quot;font-size: 18px;&quot;&gt;sent17: a person is a kind of animal&lt;/font&gt;&lt;/div&gt;&lt;div style=&quot;font-size: 18px;&quot;&gt;&lt;font style=&quot;font-size: 18px;&quot;&gt;sent18: the muscular system is a kind of body system&lt;/font&gt;&lt;/div&gt;&lt;div style=&quot;font-size: 18px;&quot;&gt;&lt;font style=&quot;font-size: 18px;&quot;&gt;sent19: the function of something is what that something is used to do&lt;/font&gt;&lt;/div&gt;&lt;div style=&quot;font-size: 18px;&quot;&gt;&lt;font style=&quot;font-size: 18px;&quot;&gt;sent20: the skeletal system is used to provide protection / shape / support for animals&lt;/font&gt;&lt;/div&gt;&lt;div style=&quot;font-size: 18px;&quot;&gt;&lt;font style=&quot;font-size: 18px;&quot;&gt;sent21: the nervous system sends observations in the form of electrical signals to the rest of the body&lt;/font&gt;&lt;/div&gt;&lt;div style=&quot;font-size: 18px;&quot;&gt;&lt;font style=&quot;font-size: 18px;&quot;&gt;sent22: if something has the ability to do something else , then that something can do that something else&lt;/font&gt;&lt;/div&gt;&lt;div style=&quot;font-size: 18px;&quot;&gt;&lt;font style=&quot;font-size: 18px;&quot;&gt;sent23: internal organs are a part of the body&lt;/font&gt;&lt;/div&gt;&lt;div style=&quot;font-size: 18px;&quot;&gt;&lt;font style=&quot;font-size: 18px;&quot;&gt;sent24: organ system means body system&lt;/font&gt;&lt;/div&gt;&lt;div style=&quot;font-size: 18px;&quot;&gt;&lt;font style=&quot;font-size: 18px;&quot;&gt;sent25: motion / movement means moving / to move&lt;/font&gt;&lt;/div&gt;&lt;div style=&quot;font-size: 18px;&quot;&gt;&lt;font style=&quot;font-size: 18px;&quot;&gt;&lt;br&gt;&lt;/font&gt;&lt;/div&gt;&lt;div style=&quot;font-size: 18px;&quot;&gt;&lt;font style=&quot;font-size: 18px;&quot;&gt;Hypothesis: the nervous system is used for coordinating the muscles&lt;/font&gt;&lt;/div&gt;" style="text;html=1;align=left;verticalAlign=middle;whiteSpace=wrap;rounded=0;" parent="rYCxm83LX6yjBRyUvIbf-1" vertex="1">
          <mxGeometry x="28.78" y="31.07" width="601.22" height="818.93" as="geometry" />
        </mxCell>
        <mxCell id="rYCxm83LX6yjBRyUvIbf-4" value="" style="group" parent="1" vertex="1" connectable="0">
          <mxGeometry x="-310" y="-100" width="340" height="140" as="geometry" />
        </mxCell>
        <mxCell id="rYCxm83LX6yjBRyUvIbf-5" value="" style="rounded=1;whiteSpace=wrap;html=1;fillColor=#f5f5f5;strokeColor=#666666;fontColor=#333333;" parent="rYCxm83LX6yjBRyUvIbf-4" vertex="1">
          <mxGeometry x="-20" y="40" width="340" height="90" as="geometry" />
        </mxCell>
        <mxCell id="rYCxm83LX6yjBRyUvIbf-6" value="&lt;font style=&quot;font-size: 18px;&quot;&gt;the muscular system is a part of the body (-0.06)&lt;/font&gt;" style="text;html=1;align=center;verticalAlign=middle;whiteSpace=wrap;rounded=0;" parent="rYCxm83LX6yjBRyUvIbf-4" vertex="1">
          <mxGeometry x="8.333333333333332" y="40" width="283.3333333333333" height="81.66666666666667" as="geometry" />
        </mxCell>
        <mxCell id="rYCxm83LX6yjBRyUvIbf-7" value="" style="group" parent="1" vertex="1" connectable="0">
          <mxGeometry x="-320" y="100" width="340" height="140" as="geometry" />
        </mxCell>
        <mxCell id="rYCxm83LX6yjBRyUvIbf-8" value="" style="rounded=1;whiteSpace=wrap;html=1;fillColor=#f5f5f5;strokeColor=#666666;fontColor=#333333;" parent="rYCxm83LX6yjBRyUvIbf-7" vertex="1">
          <mxGeometry x="-10" y="30" width="330" height="90" as="geometry" />
        </mxCell>
        <mxCell id="rYCxm83LX6yjBRyUvIbf-9" value="&lt;font style=&quot;font-size: 18px;&quot;&gt;the muscular system is a kind of body system that contains muscles&lt;/font&gt;&lt;div&gt;&lt;font style=&quot;font-size: 18px;&quot;&gt;(-0.36)&lt;/font&gt;&lt;/div&gt;" style="text;html=1;align=center;verticalAlign=middle;whiteSpace=wrap;rounded=0;" parent="rYCxm83LX6yjBRyUvIbf-7" vertex="1">
          <mxGeometry x="28.333333333333332" y="35" width="283.3333333333333" height="81.66666666666667" as="geometry" />
        </mxCell>
        <mxCell id="rYCxm83LX6yjBRyUvIbf-10" value="" style="group" parent="1" vertex="1" connectable="0">
          <mxGeometry x="-320" y="250" width="360" height="170" as="geometry" />
        </mxCell>
        <mxCell id="rYCxm83LX6yjBRyUvIbf-11" value="" style="rounded=1;whiteSpace=wrap;html=1;fillColor=#f5f5f5;strokeColor=#666666;fontColor=#333333;" parent="rYCxm83LX6yjBRyUvIbf-10" vertex="1">
          <mxGeometry x="-10" y="40" width="330" height="70" as="geometry" />
        </mxCell>
        <mxCell id="rYCxm83LX6yjBRyUvIbf-12" value="&lt;span style=&quot;font-size: 18px;&quot;&gt;the muscular system is a part of the body (-0.36)&lt;/span&gt;" style="text;html=1;align=center;verticalAlign=middle;whiteSpace=wrap;rounded=0;" parent="rYCxm83LX6yjBRyUvIbf-10" vertex="1">
          <mxGeometry x="28.333333333333332" y="35" width="283.3333333333333" height="81.66666666666667" as="geometry" />
        </mxCell>
        <mxCell id="rYCxm83LX6yjBRyUvIbf-40" value="&lt;font style=&quot;font-size: 18px;&quot;&gt;Discarded&lt;/font&gt;" style="ellipse;whiteSpace=wrap;html=1;aspect=fixed;fillColor=#a20025;fontColor=#ffffff;strokeColor=#6F0000;" parent="rYCxm83LX6yjBRyUvIbf-10" vertex="1">
          <mxGeometry x="260" y="70" width="100" height="100" as="geometry" />
        </mxCell>
        <mxCell id="rYCxm83LX6yjBRyUvIbf-13" value="" style="endArrow=classic;html=1;rounded=0;entryX=1;entryY=0;entryDx=0;entryDy=0;exitX=0.25;exitY=1;exitDx=0;exitDy=0;strokeWidth=5;fillColor=#d5e8d4;strokeColor=#82b366;" parent="1" source="rYCxm83LX6yjBRyUvIbf-5" target="rYCxm83LX6yjBRyUvIbf-24" edge="1">
          <mxGeometry width="50" height="50" relative="1" as="geometry">
            <mxPoint x="80" y="170" as="sourcePoint" />
            <mxPoint x="190" y="140" as="targetPoint" />
          </mxGeometry>
        </mxCell>
        <mxCell id="rYCxm83LX6yjBRyUvIbf-14" value="" style="endArrow=classic;html=1;rounded=0;strokeWidth=5;fillColor=#d5e8d4;strokeColor=#82b366;exitX=-0.002;exitY=0.124;exitDx=0;exitDy=0;exitPerimeter=0;entryX=1;entryY=0.5;entryDx=0;entryDy=0;" parent="1" source="rYCxm83LX6yjBRyUvIbf-3" target="rYCxm83LX6yjBRyUvIbf-24" edge="1">
          <mxGeometry width="50" height="50" relative="1" as="geometry">
            <mxPoint x="80" y="210" as="sourcePoint" />
            <mxPoint x="-460" y="150" as="targetPoint" />
          </mxGeometry>
        </mxCell>
        <mxCell id="rYCxm83LX6yjBRyUvIbf-15" value="" style="endArrow=classic;html=1;rounded=0;strokeWidth=5;fillColor=#f8cecc;strokeColor=#b85450;entryX=1;entryY=0.5;entryDx=0;entryDy=0;exitX=0;exitY=0.5;exitDx=0;exitDy=0;" parent="1" source="rYCxm83LX6yjBRyUvIbf-5" target="rYCxm83LX6yjBRyUvIbf-20" edge="1">
          <mxGeometry width="50" height="50" relative="1" as="geometry">
            <mxPoint x="110" y="300" as="sourcePoint" />
            <mxPoint x="10" y="190" as="targetPoint" />
          </mxGeometry>
        </mxCell>
        <mxCell id="rYCxm83LX6yjBRyUvIbf-16" value="" style="endArrow=classic;html=1;rounded=0;strokeWidth=5;fillColor=#f8cecc;strokeColor=#b85450;exitX=0;exitY=0.25;exitDx=0;exitDy=0;entryX=1;entryY=0.75;entryDx=0;entryDy=0;" parent="1" source="rYCxm83LX6yjBRyUvIbf-3" target="rYCxm83LX6yjBRyUvIbf-20" edge="1">
          <mxGeometry width="50" height="50" relative="1" as="geometry">
            <mxPoint x="120" y="310" as="sourcePoint" />
            <mxPoint x="20" y="200" as="targetPoint" />
          </mxGeometry>
        </mxCell>
        <mxCell id="rYCxm83LX6yjBRyUvIbf-17" value="" style="endArrow=classic;html=1;rounded=0;strokeWidth=5;fillColor=#fff2cc;strokeColor=#d6b656;entryX=1;entryY=0.25;entryDx=0;entryDy=0;exitX=0;exitY=1;exitDx=0;exitDy=0;" parent="1" source="rYCxm83LX6yjBRyUvIbf-5" target="rYCxm83LX6yjBRyUvIbf-27" edge="1">
          <mxGeometry width="50" height="50" relative="1" as="geometry">
            <mxPoint x="120" y="20" as="sourcePoint" />
            <mxPoint x="10" y="185" as="targetPoint" />
          </mxGeometry>
        </mxCell>
        <mxCell id="rYCxm83LX6yjBRyUvIbf-18" value="" style="endArrow=classic;html=1;rounded=0;entryX=1;entryY=0.25;entryDx=0;entryDy=0;strokeWidth=5;fillColor=#fff2cc;strokeColor=#d6b656;" parent="1" target="rYCxm83LX6yjBRyUvIbf-27" edge="1">
          <mxGeometry width="50" height="50" relative="1" as="geometry">
            <mxPoint x="120" y="170" as="sourcePoint" />
            <mxPoint x="20" y="-10" as="targetPoint" />
          </mxGeometry>
        </mxCell>
        <mxCell id="rYCxm83LX6yjBRyUvIbf-19" value="" style="group" parent="1" vertex="1" connectable="0">
          <mxGeometry x="-800" y="-60" width="340" height="90" as="geometry" />
        </mxCell>
        <mxCell id="rYCxm83LX6yjBRyUvIbf-20" value="" style="rounded=1;whiteSpace=wrap;html=1;fillColor=#f8cecc;strokeColor=#b85450;" parent="rYCxm83LX6yjBRyUvIbf-19" vertex="1">
          <mxGeometry width="340" height="90" as="geometry" />
        </mxCell>
        <mxCell id="rYCxm83LX6yjBRyUvIbf-21" value="&lt;font style=&quot;font-size: 18px;&quot;&gt;the muscular system is a part of the body that contains muscles (-0.2)&lt;/font&gt;" style="text;html=1;align=center;verticalAlign=middle;whiteSpace=wrap;rounded=0;" parent="rYCxm83LX6yjBRyUvIbf-19" vertex="1">
          <mxGeometry x="28.340000000000032" y="10" width="283.33" height="80" as="geometry" />
        </mxCell>
        <mxCell id="rYCxm83LX6yjBRyUvIbf-22" value="" style="group" parent="1" vertex="1" connectable="0">
          <mxGeometry x="-780" y="50" width="340" height="140" as="geometry" />
        </mxCell>
        <mxCell id="rYCxm83LX6yjBRyUvIbf-23" value="" style="group" parent="rYCxm83LX6yjBRyUvIbf-22" vertex="1" connectable="0">
          <mxGeometry x="-10" y="10" width="330" height="90" as="geometry" />
        </mxCell>
        <mxCell id="rYCxm83LX6yjBRyUvIbf-24" value="" style="rounded=1;whiteSpace=wrap;html=1;fillColor=#d5e8d4;strokeColor=#82b366;" parent="rYCxm83LX6yjBRyUvIbf-23" vertex="1">
          <mxGeometry width="330" height="90" as="geometry" />
        </mxCell>
        <mxCell id="rYCxm83LX6yjBRyUvIbf-25" value="&lt;font style=&quot;font-size: 18px;&quot;&gt;the muscular system and the brain are parts of the body&lt;/font&gt;&lt;div&gt;&lt;font style=&quot;font-size: 18px;&quot;&gt;(-0.4)&lt;/font&gt;&lt;/div&gt;" style="text;html=1;align=center;verticalAlign=middle;whiteSpace=wrap;rounded=0;" parent="rYCxm83LX6yjBRyUvIbf-23" vertex="1">
          <mxGeometry x="10" y="5" width="311.67" height="81.67" as="geometry" />
        </mxCell>
        <mxCell id="rYCxm83LX6yjBRyUvIbf-26" value="" style="group" parent="1" vertex="1" connectable="0">
          <mxGeometry x="-790" y="174.17000000000002" width="330" height="81.66666666666669" as="geometry" />
        </mxCell>
        <mxCell id="rYCxm83LX6yjBRyUvIbf-27" value="" style="rounded=1;whiteSpace=wrap;html=1;fillColor=#fff2cc;strokeColor=#d6b656;" parent="rYCxm83LX6yjBRyUvIbf-26" vertex="1">
          <mxGeometry y="5" width="330" height="70" as="geometry" />
        </mxCell>
        <mxCell id="rYCxm83LX6yjBRyUvIbf-28" value="&lt;span style=&quot;font-size: 18px;&quot;&gt;the muscular system is a part of the body (-0.43)&lt;/span&gt;" style="text;html=1;align=center;verticalAlign=middle;whiteSpace=wrap;rounded=0;" parent="rYCxm83LX6yjBRyUvIbf-26" vertex="1">
          <mxGeometry x="38.33333333333326" width="283.3333333333333" height="81.66666666666667" as="geometry" />
        </mxCell>
        <mxCell id="rYCxm83LX6yjBRyUvIbf-29" value="" style="group" parent="1" vertex="1" connectable="0">
          <mxGeometry x="-790" y="270" width="330" height="80" as="geometry" />
        </mxCell>
        <mxCell id="rYCxm83LX6yjBRyUvIbf-30" value="" style="rounded=1;whiteSpace=wrap;html=1;fillColor=#dae8fc;strokeColor=#6c8ebf;" parent="rYCxm83LX6yjBRyUvIbf-29" vertex="1">
          <mxGeometry y="4.897959183673468" width="330" height="68.57142857142856" as="geometry" />
        </mxCell>
        <mxCell id="rYCxm83LX6yjBRyUvIbf-31" value="&lt;span style=&quot;font-size: 18px;&quot;&gt;the nervous system can control the skeletal system (-0.52)&lt;/span&gt;" style="text;html=1;align=center;verticalAlign=middle;whiteSpace=wrap;rounded=0;" parent="rYCxm83LX6yjBRyUvIbf-29" vertex="1">
          <mxGeometry x="38.33333333333326" width="283.3333333333333" height="79.99999999999999" as="geometry" />
        </mxCell>
        <mxCell id="rYCxm83LX6yjBRyUvIbf-32" value="" style="group" parent="1" vertex="1" connectable="0">
          <mxGeometry x="-790" y="370" width="330" height="81.66666666666669" as="geometry" />
        </mxCell>
        <mxCell id="rYCxm83LX6yjBRyUvIbf-33" value="" style="rounded=1;whiteSpace=wrap;html=1;fillColor=#e1d5e7;strokeColor=#9673a6;" parent="rYCxm83LX6yjBRyUvIbf-32" vertex="1">
          <mxGeometry y="5" width="330" height="70" as="geometry" />
        </mxCell>
        <mxCell id="rYCxm83LX6yjBRyUvIbf-34" value="&lt;span style=&quot;font-size: 18px;&quot;&gt;the skeletal system is a part of an animal&#39;s body system (-0.53)&lt;/span&gt;" style="text;html=1;align=center;verticalAlign=middle;whiteSpace=wrap;rounded=0;" parent="rYCxm83LX6yjBRyUvIbf-32" vertex="1">
          <mxGeometry x="38.33333333333326" width="283.3333333333333" height="81.66666666666667" as="geometry" />
        </mxCell>
        <mxCell id="rYCxm83LX6yjBRyUvIbf-35" value="" style="endArrow=classic;html=1;rounded=0;entryX=1;entryY=0.5;entryDx=0;entryDy=0;strokeWidth=5;fillColor=#dae8fc;strokeColor=#6c8ebf;exitX=-0.001;exitY=0.409;exitDx=0;exitDy=0;exitPerimeter=0;" parent="1" source="rYCxm83LX6yjBRyUvIbf-3" target="rYCxm83LX6yjBRyUvIbf-30" edge="1">
          <mxGeometry width="50" height="50" relative="1" as="geometry">
            <mxPoint x="130" y="180" as="sourcePoint" />
            <mxPoint x="-450" y="207" as="targetPoint" />
          </mxGeometry>
        </mxCell>
        <mxCell id="rYCxm83LX6yjBRyUvIbf-36" value="" style="endArrow=classic;html=1;rounded=0;entryX=1;entryY=0.75;entryDx=0;entryDy=0;strokeWidth=5;fillColor=#dae8fc;strokeColor=#6c8ebf;exitX=-0.001;exitY=0.462;exitDx=0;exitDy=0;exitPerimeter=0;" parent="1" source="rYCxm83LX6yjBRyUvIbf-3" target="rYCxm83LX6yjBRyUvIbf-30" edge="1">
          <mxGeometry width="50" height="50" relative="1" as="geometry">
            <mxPoint x="110" y="190" as="sourcePoint" />
            <mxPoint x="-440" y="217" as="targetPoint" />
          </mxGeometry>
        </mxCell>
        <mxCell id="rYCxm83LX6yjBRyUvIbf-37" value="" style="endArrow=classic;html=1;rounded=0;entryX=1;entryY=0.75;entryDx=0;entryDy=0;strokeWidth=5;fillColor=#e1d5e7;strokeColor=#9673a6;" parent="1" target="rYCxm83LX6yjBRyUvIbf-33" edge="1">
          <mxGeometry width="50" height="50" relative="1" as="geometry">
            <mxPoint x="120" y="190" as="sourcePoint" />
            <mxPoint x="-450" y="336" as="targetPoint" />
          </mxGeometry>
        </mxCell>
        <mxCell id="rYCxm83LX6yjBRyUvIbf-38" value="" style="endArrow=classic;html=1;rounded=0;entryX=1;entryY=0.5;entryDx=0;entryDy=0;strokeWidth=5;fillColor=#e1d5e7;strokeColor=#9673a6;exitX=0;exitY=0.385;exitDx=0;exitDy=0;exitPerimeter=0;" parent="1" source="rYCxm83LX6yjBRyUvIbf-3" target="rYCxm83LX6yjBRyUvIbf-33" edge="1">
          <mxGeometry width="50" height="50" relative="1" as="geometry">
            <mxPoint x="138" y="209" as="sourcePoint" />
            <mxPoint x="-440" y="346" as="targetPoint" />
          </mxGeometry>
        </mxCell>
        <mxCell id="rYCxm83LX6yjBRyUvIbf-39" value="&lt;font style=&quot;font-size: 18px;&quot;&gt;Discarded&lt;/font&gt;" style="ellipse;whiteSpace=wrap;html=1;aspect=fixed;fillColor=#a20025;fontColor=#ffffff;strokeColor=#6F0000;" parent="1" vertex="1">
          <mxGeometry x="-330" y="70" width="100" height="100" as="geometry" />
        </mxCell>
      </root>
    </mxGraphModel>
  </diagram>
  <diagram id="JVRGu5o-q0_sSU9axuuY" name="Page-6">
    <mxGraphModel dx="1981" dy="1070" grid="1" gridSize="10" guides="1" tooltips="1" connect="1" arrows="1" fold="1" page="1" pageScale="1" pageWidth="850" pageHeight="1100" math="0" shadow="0">
      <root>
        <mxCell id="0" />
        <mxCell id="1" parent="0" />
        <mxCell id="wyRMkkgJZ7WqRJi6gYV2-1" value="&lt;div&gt;&lt;br&gt;&lt;/div&gt;&lt;div style=&quot;&quot;&gt;&lt;br&gt;&lt;/div&gt;" style="rounded=1;whiteSpace=wrap;html=1;align=left;fillColor=#fff2cc;strokeColor=#d6b656;" vertex="1" parent="1">
          <mxGeometry x="80" y="120" width="550" height="250" as="geometry" />
        </mxCell>
        <mxCell id="wyRMkkgJZ7WqRJi6gYV2-2" value="&lt;br&gt;&lt;div style=&quot;font-size: 18px;&quot;&gt;&lt;div&gt;&lt;font style=&quot;font-size: 18px;&quot;&gt;sent1: the gravitational pull of the moon on earth &#39;s oceans causes the tides&lt;/font&gt;&lt;/div&gt;&lt;div&gt;&lt;font style=&quot;font-size: 18px;&quot;&gt;sent2: the moon is a kind of moon&lt;/font&gt;&lt;/div&gt;&lt;div&gt;&lt;font style=&quot;font-size: 18px;&quot;&gt;...&lt;span style=&quot;white-space: pre;&quot;&gt;&#x9;&lt;/span&gt;&lt;br&gt;&lt;/font&gt;&lt;/div&gt;&lt;div&gt;&lt;font style=&quot;font-size: 18px;&quot;&gt;sent24: a moon is located in space&lt;/font&gt;&lt;/div&gt;&lt;div&gt;&lt;font style=&quot;font-size: 18px;&quot;&gt;&amp;nbsp;&lt;/font&gt;&lt;/div&gt;&lt;div&gt;&lt;font style=&quot;font-size: 18px;&quot;&gt;Hypothesis:&lt;/font&gt;&lt;/div&gt;&lt;div&gt;&lt;font style=&quot;font-size: 18px;&quot;&gt;the gravitational pull of the moon on earth affects the tides more than the gravitational pull of the sun&amp;nbsp; &amp;nbsp;&lt;/font&gt;&lt;/div&gt;&lt;/div&gt;&lt;div style=&quot;font-size: 18px;&quot;&gt;&lt;font style=&quot;font-size: 18px;&quot;&gt;&lt;br&gt;&lt;/font&gt;&lt;/div&gt;&lt;div style=&quot;font-size: 18px;&quot;&gt;&lt;br&gt;&lt;/div&gt;" style="text;html=1;align=left;verticalAlign=middle;whiteSpace=wrap;rounded=0;" vertex="1" parent="1">
          <mxGeometry x="110" y="160" width="520" height="190" as="geometry" />
        </mxCell>
        <mxCell id="wyRMkkgJZ7WqRJi6gYV2-4" value="" style="endArrow=classic;html=1;rounded=0;exitX=0.5;exitY=1;exitDx=0;exitDy=0;entryX=0.5;entryY=0;entryDx=0;entryDy=0;" edge="1" parent="1" source="wyRMkkgJZ7WqRJi6gYV2-1" target="wyRMkkgJZ7WqRJi6gYV2-5">
          <mxGeometry width="50" height="50" relative="1" as="geometry">
            <mxPoint x="455" y="540" as="sourcePoint" />
            <mxPoint x="445" y="710" as="targetPoint" />
          </mxGeometry>
        </mxCell>
        <mxCell id="wyRMkkgJZ7WqRJi6gYV2-5" value="&lt;font style=&quot;font-size: 18px;&quot;&gt;sent10 &amp;amp; sent23&lt;/font&gt;" style="rounded=1;whiteSpace=wrap;html=1;fillColor=#f8cecc;strokeColor=#b85450;" vertex="1" parent="1">
          <mxGeometry x="280" y="410" width="150" height="40" as="geometry" />
        </mxCell>
      </root>
    </mxGraphModel>
  </diagram>
  <diagram id="e3XnAxMxDlqMqarcUGtA" name="Page-7">
    <mxGraphModel dx="2831" dy="2170" grid="1" gridSize="10" guides="1" tooltips="1" connect="1" arrows="1" fold="1" page="1" pageScale="1" pageWidth="850" pageHeight="1100" math="0" shadow="0">
      <root>
        <mxCell id="0" />
        <mxCell id="1" parent="0" />
        <mxCell id="7t0q9TPRwBxt2ILGu9fx-1" value="" style="group" vertex="1" connectable="0" parent="1">
          <mxGeometry x="90" y="-220" width="670" height="870" as="geometry" />
        </mxCell>
        <mxCell id="7t0q9TPRwBxt2ILGu9fx-2" value="" style="rounded=0;whiteSpace=wrap;html=1;align=left;fillColor=#f5f5f5;fontColor=#333333;strokeColor=#666666;" vertex="1" parent="7t0q9TPRwBxt2ILGu9fx-1">
          <mxGeometry y="50" width="630" height="760" as="geometry" />
        </mxCell>
        <mxCell id="7t0q9TPRwBxt2ILGu9fx-3" value="&lt;div style=&quot;font-size: 18px;&quot;&gt;&lt;font style=&quot;font-size: 18px;&quot;&gt;sent1: the spinal cord is a part of the central nervous system&lt;/font&gt;&lt;/div&gt;&lt;div style=&quot;font-size: 18px;&quot;&gt;&lt;font style=&quot;font-size: 18px;&quot;&gt;sent2: the brain is a part of the body&lt;/font&gt;&lt;/div&gt;&lt;div style=&quot;font-size: 18px;&quot;&gt;&lt;font style=&quot;font-size: 18px;&quot;&gt;sent3: an animal &#39;s brain controls that animal&lt;/font&gt;&lt;/div&gt;&lt;div style=&quot;font-size: 18px;&quot;&gt;&lt;font style=&quot;font-size: 18px;&quot;&gt;sent4: if something performs a task then that task is that something &#39;s function&lt;/font&gt;&lt;/div&gt;&lt;div style=&quot;font-size: 18px;&quot;&gt;&lt;font style=&quot;font-size: 18px;&quot;&gt;sent5: the skeletal system is used to give structure for the body of animals&lt;/font&gt;&lt;/div&gt;&lt;div style=&quot;font-size: 18px;&quot;&gt;&lt;font style=&quot;font-size: 18px;&quot;&gt;sent6: the muscular system contains muscles&lt;/font&gt;&lt;/div&gt;&lt;div style=&quot;font-size: 18px;&quot;&gt;&lt;font style=&quot;font-size: 18px;&quot;&gt;sent7: nerves can be used to feel heat and pressure on the skin&lt;/font&gt;&lt;/div&gt;&lt;div style=&quot;font-size: 18px;&quot;&gt;&lt;font style=&quot;font-size: 18px;&quot;&gt;sent8: system means a set of objects&lt;/font&gt;&lt;/div&gt;&lt;div style=&quot;font-size: 18px;&quot;&gt;&lt;font style=&quot;font-size: 18px;&quot;&gt;sent9: physical fitness is similar to athletic ability&lt;/font&gt;&lt;/div&gt;&lt;div style=&quot;font-size: 18px;&quot;&gt;&lt;font style=&quot;font-size: 18px;&quot;&gt;sent10: to control something can mean to coordinate something&lt;/font&gt;&lt;/div&gt;&lt;div style=&quot;font-size: 18px;&quot;&gt;&lt;font style=&quot;font-size: 18px;&quot;&gt;sent11: the skeletal system is a kind of body system&lt;/font&gt;&lt;/div&gt;&lt;div style=&quot;font-size: 18px;&quot;&gt;&lt;font style=&quot;font-size: 18px;&quot;&gt;sent12: the brain can control animal body through the nervous system&lt;/font&gt;&lt;/div&gt;&lt;div style=&quot;font-size: 18px;&quot;&gt;&lt;font style=&quot;font-size: 18px;&quot;&gt;sent13: a body system is a part of the body&lt;/font&gt;&lt;/div&gt;&lt;div style=&quot;font-size: 18px;&quot;&gt;&lt;font style=&quot;font-size: 18px;&quot;&gt;sent14: a skeletal system is a part of an animal&lt;/font&gt;&lt;/div&gt;&lt;div style=&quot;font-size: 18px;&quot;&gt;&lt;font style=&quot;font-size: 18px;&quot;&gt;sent15: skeletal system is made of bones&lt;/font&gt;&lt;/div&gt;&lt;div style=&quot;font-size: 18px;&quot;&gt;&lt;font style=&quot;font-size: 18px;&quot;&gt;sent16: if an organism can do something , then that organism is able to do that something&lt;/font&gt;&lt;/div&gt;&lt;div style=&quot;font-size: 18px;&quot;&gt;&lt;font style=&quot;font-size: 18px;&quot;&gt;sent17: a person is a kind of animal&lt;/font&gt;&lt;/div&gt;&lt;div style=&quot;font-size: 18px;&quot;&gt;&lt;font style=&quot;font-size: 18px;&quot;&gt;sent18: the muscular system is a kind of body system&lt;/font&gt;&lt;/div&gt;&lt;div style=&quot;font-size: 18px;&quot;&gt;&lt;font style=&quot;font-size: 18px;&quot;&gt;sent19: the function of something is what that something is used to do&lt;/font&gt;&lt;/div&gt;&lt;div style=&quot;font-size: 18px;&quot;&gt;&lt;font style=&quot;font-size: 18px;&quot;&gt;sent20: the skeletal system is used to provide protection / shape / support for animals&lt;/font&gt;&lt;/div&gt;&lt;div style=&quot;font-size: 18px;&quot;&gt;&lt;font style=&quot;font-size: 18px;&quot;&gt;sent21: the nervous system sends observations in the form of electrical signals to the rest of the body&lt;/font&gt;&lt;/div&gt;&lt;div style=&quot;font-size: 18px;&quot;&gt;&lt;font style=&quot;font-size: 18px;&quot;&gt;sent22: if something has the ability to do something else , then that something can do that something else&lt;/font&gt;&lt;/div&gt;&lt;div style=&quot;font-size: 18px;&quot;&gt;&lt;font style=&quot;font-size: 18px;&quot;&gt;sent23: internal organs are a part of the body&lt;/font&gt;&lt;/div&gt;&lt;div style=&quot;font-size: 18px;&quot;&gt;&lt;font style=&quot;font-size: 18px;&quot;&gt;sent24: organ system means body system&lt;/font&gt;&lt;/div&gt;&lt;div style=&quot;font-size: 18px;&quot;&gt;&lt;font style=&quot;font-size: 18px;&quot;&gt;sent25: motion / movement means moving / to move&lt;/font&gt;&lt;/div&gt;&lt;div style=&quot;font-size: 18px;&quot;&gt;&lt;font style=&quot;font-size: 18px;&quot;&gt;&lt;br&gt;&lt;/font&gt;&lt;/div&gt;&lt;div style=&quot;font-size: 18px;&quot;&gt;&lt;font style=&quot;font-size: 18px;&quot;&gt;Hypothesis: the nervous system is used for coordinating the muscles&lt;/font&gt;&lt;/div&gt;" style="text;html=1;align=left;verticalAlign=middle;whiteSpace=wrap;rounded=0;" vertex="1" parent="7t0q9TPRwBxt2ILGu9fx-1">
          <mxGeometry x="28.78" y="31.07" width="601.22" height="818.93" as="geometry" />
        </mxCell>
        <mxCell id="7t0q9TPRwBxt2ILGu9fx-4" value="" style="group" vertex="1" connectable="0" parent="1">
          <mxGeometry x="-310" y="-100" width="340" height="140" as="geometry" />
        </mxCell>
        <mxCell id="7t0q9TPRwBxt2ILGu9fx-5" value="" style="rounded=1;whiteSpace=wrap;html=1;fillColor=#f5f5f5;strokeColor=#666666;fontColor=#333333;" vertex="1" parent="7t0q9TPRwBxt2ILGu9fx-4">
          <mxGeometry x="-20" y="40" width="340" height="90" as="geometry" />
        </mxCell>
        <mxCell id="7t0q9TPRwBxt2ILGu9fx-6" value="&lt;font style=&quot;font-size: 18px;&quot;&gt;the muscular system is a part of the body (-0.06)&lt;/font&gt;" style="text;html=1;align=center;verticalAlign=middle;whiteSpace=wrap;rounded=0;" vertex="1" parent="7t0q9TPRwBxt2ILGu9fx-4">
          <mxGeometry x="8.333333333333332" y="40" width="283.3333333333333" height="81.66666666666667" as="geometry" />
        </mxCell>
        <mxCell id="7t0q9TPRwBxt2ILGu9fx-7" value="" style="group" vertex="1" connectable="0" parent="1">
          <mxGeometry x="-320" y="100" width="340" height="140" as="geometry" />
        </mxCell>
        <mxCell id="7t0q9TPRwBxt2ILGu9fx-8" value="" style="rounded=1;whiteSpace=wrap;html=1;fillColor=#f5f5f5;strokeColor=#666666;fontColor=#333333;" vertex="1" parent="7t0q9TPRwBxt2ILGu9fx-7">
          <mxGeometry x="-10" y="30" width="330" height="90" as="geometry" />
        </mxCell>
        <mxCell id="7t0q9TPRwBxt2ILGu9fx-9" value="&lt;font style=&quot;font-size: 18px;&quot;&gt;the muscular system is a kind of body system that contains muscles&lt;/font&gt;&lt;div&gt;&lt;font style=&quot;font-size: 18px;&quot;&gt;(-0.36)&lt;/font&gt;&lt;/div&gt;" style="text;html=1;align=center;verticalAlign=middle;whiteSpace=wrap;rounded=0;" vertex="1" parent="7t0q9TPRwBxt2ILGu9fx-7">
          <mxGeometry x="28.333333333333332" y="35" width="283.3333333333333" height="81.66666666666667" as="geometry" />
        </mxCell>
        <mxCell id="7t0q9TPRwBxt2ILGu9fx-10" value="" style="group" vertex="1" connectable="0" parent="1">
          <mxGeometry x="-320" y="250" width="360" height="170" as="geometry" />
        </mxCell>
        <mxCell id="7t0q9TPRwBxt2ILGu9fx-11" value="" style="rounded=1;whiteSpace=wrap;html=1;fillColor=#f5f5f5;strokeColor=#666666;fontColor=#333333;" vertex="1" parent="7t0q9TPRwBxt2ILGu9fx-10">
          <mxGeometry x="-10" y="40" width="330" height="70" as="geometry" />
        </mxCell>
        <mxCell id="7t0q9TPRwBxt2ILGu9fx-12" value="&lt;span style=&quot;font-size: 18px;&quot;&gt;the muscular system is a part of the body (-0.36)&lt;/span&gt;" style="text;html=1;align=center;verticalAlign=middle;whiteSpace=wrap;rounded=0;" vertex="1" parent="7t0q9TPRwBxt2ILGu9fx-10">
          <mxGeometry x="28.333333333333332" y="35" width="283.3333333333333" height="81.66666666666667" as="geometry" />
        </mxCell>
        <mxCell id="7t0q9TPRwBxt2ILGu9fx-13" value="&lt;font style=&quot;font-size: 18px;&quot;&gt;Discarded&lt;/font&gt;" style="ellipse;whiteSpace=wrap;html=1;aspect=fixed;fillColor=#a20025;fontColor=#ffffff;strokeColor=#6F0000;" vertex="1" parent="7t0q9TPRwBxt2ILGu9fx-10">
          <mxGeometry x="260" y="70" width="100" height="100" as="geometry" />
        </mxCell>
        <mxCell id="7t0q9TPRwBxt2ILGu9fx-14" value="" style="endArrow=classic;html=1;rounded=0;entryX=1;entryY=0;entryDx=0;entryDy=0;exitX=0.25;exitY=1;exitDx=0;exitDy=0;strokeWidth=5;fillColor=#d5e8d4;strokeColor=#82b366;" edge="1" parent="1" source="7t0q9TPRwBxt2ILGu9fx-5" target="7t0q9TPRwBxt2ILGu9fx-25">
          <mxGeometry width="50" height="50" relative="1" as="geometry">
            <mxPoint x="80" y="170" as="sourcePoint" />
            <mxPoint x="190" y="140" as="targetPoint" />
          </mxGeometry>
        </mxCell>
        <mxCell id="7t0q9TPRwBxt2ILGu9fx-15" value="" style="endArrow=classic;html=1;rounded=0;strokeWidth=5;fillColor=#d5e8d4;strokeColor=#82b366;exitX=-0.002;exitY=0.124;exitDx=0;exitDy=0;exitPerimeter=0;entryX=1;entryY=0.5;entryDx=0;entryDy=0;" edge="1" parent="1" source="7t0q9TPRwBxt2ILGu9fx-3" target="7t0q9TPRwBxt2ILGu9fx-25">
          <mxGeometry width="50" height="50" relative="1" as="geometry">
            <mxPoint x="80" y="210" as="sourcePoint" />
            <mxPoint x="-460" y="150" as="targetPoint" />
          </mxGeometry>
        </mxCell>
        <mxCell id="7t0q9TPRwBxt2ILGu9fx-16" value="" style="endArrow=classic;html=1;rounded=0;strokeWidth=5;fillColor=#f8cecc;strokeColor=#b85450;entryX=1;entryY=0.5;entryDx=0;entryDy=0;exitX=0;exitY=0.5;exitDx=0;exitDy=0;" edge="1" parent="1" source="7t0q9TPRwBxt2ILGu9fx-5" target="7t0q9TPRwBxt2ILGu9fx-21">
          <mxGeometry width="50" height="50" relative="1" as="geometry">
            <mxPoint x="110" y="300" as="sourcePoint" />
            <mxPoint x="10" y="190" as="targetPoint" />
          </mxGeometry>
        </mxCell>
        <mxCell id="7t0q9TPRwBxt2ILGu9fx-17" value="" style="endArrow=classic;html=1;rounded=0;strokeWidth=5;fillColor=#f8cecc;strokeColor=#b85450;exitX=0;exitY=0.25;exitDx=0;exitDy=0;entryX=1;entryY=0.75;entryDx=0;entryDy=0;" edge="1" parent="1" source="7t0q9TPRwBxt2ILGu9fx-3" target="7t0q9TPRwBxt2ILGu9fx-21">
          <mxGeometry width="50" height="50" relative="1" as="geometry">
            <mxPoint x="120" y="310" as="sourcePoint" />
            <mxPoint x="20" y="200" as="targetPoint" />
          </mxGeometry>
        </mxCell>
        <mxCell id="7t0q9TPRwBxt2ILGu9fx-18" value="" style="endArrow=classic;html=1;rounded=0;strokeWidth=5;fillColor=#fff2cc;strokeColor=#d6b656;entryX=1;entryY=0.25;entryDx=0;entryDy=0;exitX=0;exitY=1;exitDx=0;exitDy=0;" edge="1" parent="1" source="7t0q9TPRwBxt2ILGu9fx-5" target="7t0q9TPRwBxt2ILGu9fx-28">
          <mxGeometry width="50" height="50" relative="1" as="geometry">
            <mxPoint x="120" y="20" as="sourcePoint" />
            <mxPoint x="10" y="185" as="targetPoint" />
          </mxGeometry>
        </mxCell>
        <mxCell id="7t0q9TPRwBxt2ILGu9fx-19" value="" style="endArrow=classic;html=1;rounded=0;entryX=1;entryY=0.25;entryDx=0;entryDy=0;strokeWidth=5;fillColor=#fff2cc;strokeColor=#d6b656;" edge="1" parent="1" target="7t0q9TPRwBxt2ILGu9fx-28">
          <mxGeometry width="50" height="50" relative="1" as="geometry">
            <mxPoint x="120" y="170" as="sourcePoint" />
            <mxPoint x="20" y="-10" as="targetPoint" />
          </mxGeometry>
        </mxCell>
        <mxCell id="7t0q9TPRwBxt2ILGu9fx-20" value="" style="group" vertex="1" connectable="0" parent="1">
          <mxGeometry x="-800" y="-60" width="340" height="90" as="geometry" />
        </mxCell>
        <mxCell id="7t0q9TPRwBxt2ILGu9fx-21" value="" style="rounded=1;whiteSpace=wrap;html=1;fillColor=#f8cecc;strokeColor=#b85450;" vertex="1" parent="7t0q9TPRwBxt2ILGu9fx-20">
          <mxGeometry width="340" height="90" as="geometry" />
        </mxCell>
        <mxCell id="7t0q9TPRwBxt2ILGu9fx-22" value="&lt;font style=&quot;font-size: 18px;&quot;&gt;the muscular system is a part of the body that contains muscles (-0.2)&lt;/font&gt;" style="text;html=1;align=center;verticalAlign=middle;whiteSpace=wrap;rounded=0;" vertex="1" parent="7t0q9TPRwBxt2ILGu9fx-20">
          <mxGeometry x="28.340000000000032" y="10" width="283.33" height="80" as="geometry" />
        </mxCell>
        <mxCell id="7t0q9TPRwBxt2ILGu9fx-23" value="" style="group" vertex="1" connectable="0" parent="1">
          <mxGeometry x="-780" y="50" width="340" height="140" as="geometry" />
        </mxCell>
        <mxCell id="7t0q9TPRwBxt2ILGu9fx-24" value="" style="group" vertex="1" connectable="0" parent="7t0q9TPRwBxt2ILGu9fx-23">
          <mxGeometry x="-10" y="10" width="330" height="90" as="geometry" />
        </mxCell>
        <mxCell id="7t0q9TPRwBxt2ILGu9fx-25" value="" style="rounded=1;whiteSpace=wrap;html=1;fillColor=#d5e8d4;strokeColor=#82b366;" vertex="1" parent="7t0q9TPRwBxt2ILGu9fx-24">
          <mxGeometry width="330" height="90" as="geometry" />
        </mxCell>
        <mxCell id="7t0q9TPRwBxt2ILGu9fx-26" value="&lt;font style=&quot;font-size: 18px;&quot;&gt;the muscular system and the brain are parts of the body&lt;/font&gt;&lt;div&gt;&lt;font style=&quot;font-size: 18px;&quot;&gt;(-0.4)&lt;/font&gt;&lt;/div&gt;" style="text;html=1;align=center;verticalAlign=middle;whiteSpace=wrap;rounded=0;" vertex="1" parent="7t0q9TPRwBxt2ILGu9fx-24">
          <mxGeometry x="10" y="5" width="311.67" height="81.67" as="geometry" />
        </mxCell>
        <mxCell id="7t0q9TPRwBxt2ILGu9fx-27" value="" style="group" vertex="1" connectable="0" parent="1">
          <mxGeometry x="-790" y="174.17000000000002" width="330" height="81.66666666666669" as="geometry" />
        </mxCell>
        <mxCell id="7t0q9TPRwBxt2ILGu9fx-28" value="" style="rounded=1;whiteSpace=wrap;html=1;fillColor=#fff2cc;strokeColor=#d6b656;" vertex="1" parent="7t0q9TPRwBxt2ILGu9fx-27">
          <mxGeometry y="5" width="330" height="70" as="geometry" />
        </mxCell>
        <mxCell id="7t0q9TPRwBxt2ILGu9fx-29" value="&lt;span style=&quot;font-size: 18px;&quot;&gt;the muscular system is a part of the body (-0.43)&lt;/span&gt;" style="text;html=1;align=center;verticalAlign=middle;whiteSpace=wrap;rounded=0;" vertex="1" parent="7t0q9TPRwBxt2ILGu9fx-27">
          <mxGeometry x="38.33333333333326" width="283.3333333333333" height="81.66666666666667" as="geometry" />
        </mxCell>
        <mxCell id="7t0q9TPRwBxt2ILGu9fx-30" value="" style="group" vertex="1" connectable="0" parent="1">
          <mxGeometry x="-790" y="270" width="330" height="80" as="geometry" />
        </mxCell>
        <mxCell id="7t0q9TPRwBxt2ILGu9fx-31" value="" style="rounded=1;whiteSpace=wrap;html=1;fillColor=#dae8fc;strokeColor=#6c8ebf;" vertex="1" parent="7t0q9TPRwBxt2ILGu9fx-30">
          <mxGeometry y="4.897959183673468" width="330" height="68.57142857142856" as="geometry" />
        </mxCell>
        <mxCell id="7t0q9TPRwBxt2ILGu9fx-32" value="&lt;span style=&quot;font-size: 18px;&quot;&gt;the nervous system can control the skeletal system (-0.52)&lt;/span&gt;" style="text;html=1;align=center;verticalAlign=middle;whiteSpace=wrap;rounded=0;" vertex="1" parent="7t0q9TPRwBxt2ILGu9fx-30">
          <mxGeometry x="38.33333333333326" width="283.3333333333333" height="79.99999999999999" as="geometry" />
        </mxCell>
        <mxCell id="7t0q9TPRwBxt2ILGu9fx-33" value="" style="group" vertex="1" connectable="0" parent="1">
          <mxGeometry x="-790" y="370" width="330" height="81.66666666666669" as="geometry" />
        </mxCell>
        <mxCell id="7t0q9TPRwBxt2ILGu9fx-34" value="" style="rounded=1;whiteSpace=wrap;html=1;fillColor=#e1d5e7;strokeColor=#9673a6;" vertex="1" parent="7t0q9TPRwBxt2ILGu9fx-33">
          <mxGeometry y="5" width="330" height="70" as="geometry" />
        </mxCell>
        <mxCell id="7t0q9TPRwBxt2ILGu9fx-35" value="&lt;span style=&quot;font-size: 18px;&quot;&gt;the skeletal system is a part of an animal&#39;s body system (-0.53)&lt;/span&gt;" style="text;html=1;align=center;verticalAlign=middle;whiteSpace=wrap;rounded=0;" vertex="1" parent="7t0q9TPRwBxt2ILGu9fx-33">
          <mxGeometry x="38.33333333333326" width="283.3333333333333" height="81.66666666666667" as="geometry" />
        </mxCell>
        <mxCell id="7t0q9TPRwBxt2ILGu9fx-36" value="" style="endArrow=classic;html=1;rounded=0;entryX=1;entryY=0.5;entryDx=0;entryDy=0;strokeWidth=5;fillColor=#dae8fc;strokeColor=#6c8ebf;exitX=-0.001;exitY=0.409;exitDx=0;exitDy=0;exitPerimeter=0;" edge="1" parent="1" source="7t0q9TPRwBxt2ILGu9fx-3" target="7t0q9TPRwBxt2ILGu9fx-31">
          <mxGeometry width="50" height="50" relative="1" as="geometry">
            <mxPoint x="130" y="180" as="sourcePoint" />
            <mxPoint x="-450" y="207" as="targetPoint" />
          </mxGeometry>
        </mxCell>
        <mxCell id="7t0q9TPRwBxt2ILGu9fx-37" value="" style="endArrow=classic;html=1;rounded=0;entryX=1;entryY=0.75;entryDx=0;entryDy=0;strokeWidth=5;fillColor=#dae8fc;strokeColor=#6c8ebf;exitX=-0.001;exitY=0.462;exitDx=0;exitDy=0;exitPerimeter=0;" edge="1" parent="1" source="7t0q9TPRwBxt2ILGu9fx-3" target="7t0q9TPRwBxt2ILGu9fx-31">
          <mxGeometry width="50" height="50" relative="1" as="geometry">
            <mxPoint x="110" y="190" as="sourcePoint" />
            <mxPoint x="-440" y="217" as="targetPoint" />
          </mxGeometry>
        </mxCell>
        <mxCell id="7t0q9TPRwBxt2ILGu9fx-38" value="" style="endArrow=classic;html=1;rounded=0;entryX=1;entryY=0.75;entryDx=0;entryDy=0;strokeWidth=5;fillColor=#e1d5e7;strokeColor=#9673a6;" edge="1" parent="1" target="7t0q9TPRwBxt2ILGu9fx-34">
          <mxGeometry width="50" height="50" relative="1" as="geometry">
            <mxPoint x="120" y="190" as="sourcePoint" />
            <mxPoint x="-450" y="336" as="targetPoint" />
          </mxGeometry>
        </mxCell>
        <mxCell id="7t0q9TPRwBxt2ILGu9fx-39" value="" style="endArrow=classic;html=1;rounded=0;entryX=1;entryY=0.5;entryDx=0;entryDy=0;strokeWidth=5;fillColor=#e1d5e7;strokeColor=#9673a6;exitX=0;exitY=0.385;exitDx=0;exitDy=0;exitPerimeter=0;" edge="1" parent="1" source="7t0q9TPRwBxt2ILGu9fx-3" target="7t0q9TPRwBxt2ILGu9fx-34">
          <mxGeometry width="50" height="50" relative="1" as="geometry">
            <mxPoint x="138" y="209" as="sourcePoint" />
            <mxPoint x="-440" y="346" as="targetPoint" />
          </mxGeometry>
        </mxCell>
        <mxCell id="7t0q9TPRwBxt2ILGu9fx-40" value="&lt;font style=&quot;font-size: 18px;&quot;&gt;Discarded&lt;/font&gt;" style="ellipse;whiteSpace=wrap;html=1;aspect=fixed;fillColor=#a20025;fontColor=#ffffff;strokeColor=#6F0000;" vertex="1" parent="1">
          <mxGeometry x="-330" y="70" width="100" height="100" as="geometry" />
        </mxCell>
        <mxCell id="MjDweA22UZ_13ylLr9Ut-1" value="" style="group" vertex="1" connectable="0" parent="1">
          <mxGeometry x="1270" y="-220" width="670" height="870" as="geometry" />
        </mxCell>
        <mxCell id="MjDweA22UZ_13ylLr9Ut-2" value="" style="rounded=0;whiteSpace=wrap;html=1;align=left;fillColor=#f5f5f5;fontColor=#333333;strokeColor=#666666;" vertex="1" parent="MjDweA22UZ_13ylLr9Ut-1">
          <mxGeometry y="50" width="630" height="760" as="geometry" />
        </mxCell>
        <mxCell id="MjDweA22UZ_13ylLr9Ut-3" value="&lt;div style=&quot;font-size: 18px;&quot;&gt;&lt;font style=&quot;font-size: 18px;&quot;&gt;sent1: the spinal cord is a part of the central nervous system&lt;/font&gt;&lt;/div&gt;&lt;div style=&quot;font-size: 18px;&quot;&gt;&lt;font style=&quot;font-size: 18px;&quot;&gt;sent2: the brain is a part of the body&lt;/font&gt;&lt;/div&gt;&lt;div style=&quot;font-size: 18px;&quot;&gt;&lt;font style=&quot;font-size: 18px;&quot;&gt;sent3: an animal &#39;s brain controls that animal&lt;/font&gt;&lt;/div&gt;&lt;div style=&quot;font-size: 18px;&quot;&gt;&lt;font style=&quot;font-size: 18px;&quot;&gt;sent4: if something performs a task then that task is that something &#39;s function&lt;/font&gt;&lt;/div&gt;&lt;div style=&quot;font-size: 18px;&quot;&gt;&lt;font style=&quot;font-size: 18px;&quot;&gt;sent5: the skeletal system is used to give structure for the body of animals&lt;/font&gt;&lt;/div&gt;&lt;div style=&quot;font-size: 18px;&quot;&gt;&lt;font style=&quot;font-size: 18px;&quot;&gt;sent6: the muscular system contains muscles&lt;/font&gt;&lt;/div&gt;&lt;div style=&quot;font-size: 18px;&quot;&gt;&lt;font style=&quot;font-size: 18px;&quot;&gt;sent7: nerves can be used to feel heat and pressure on the skin&lt;/font&gt;&lt;/div&gt;&lt;div style=&quot;font-size: 18px;&quot;&gt;&lt;font style=&quot;font-size: 18px;&quot;&gt;sent8: system means a set of objects&lt;/font&gt;&lt;/div&gt;&lt;div style=&quot;font-size: 18px;&quot;&gt;&lt;font style=&quot;font-size: 18px;&quot;&gt;sent9: physical fitness is similar to athletic ability&lt;/font&gt;&lt;/div&gt;&lt;div style=&quot;font-size: 18px;&quot;&gt;&lt;font style=&quot;font-size: 18px;&quot;&gt;sent10: to control something can mean to coordinate something&lt;/font&gt;&lt;/div&gt;&lt;div style=&quot;font-size: 18px;&quot;&gt;&lt;font style=&quot;font-size: 18px;&quot;&gt;sent11: the skeletal system is a kind of body system&lt;/font&gt;&lt;/div&gt;&lt;div style=&quot;font-size: 18px;&quot;&gt;&lt;font style=&quot;font-size: 18px;&quot;&gt;sent12: the brain can control animal body through the nervous system&lt;/font&gt;&lt;/div&gt;&lt;div style=&quot;font-size: 18px;&quot;&gt;&lt;font style=&quot;font-size: 18px;&quot;&gt;sent13: a body system is a part of the body&lt;/font&gt;&lt;/div&gt;&lt;div style=&quot;font-size: 18px;&quot;&gt;&lt;font style=&quot;font-size: 18px;&quot;&gt;sent14: a skeletal system is a part of an animal&lt;/font&gt;&lt;/div&gt;&lt;div style=&quot;font-size: 18px;&quot;&gt;&lt;font style=&quot;font-size: 18px;&quot;&gt;sent15: skeletal system is made of bones&lt;/font&gt;&lt;/div&gt;&lt;div style=&quot;font-size: 18px;&quot;&gt;&lt;font style=&quot;font-size: 18px;&quot;&gt;sent16: if an organism can do something , then that organism is able to do that something&lt;/font&gt;&lt;/div&gt;&lt;div style=&quot;font-size: 18px;&quot;&gt;&lt;font style=&quot;font-size: 18px;&quot;&gt;sent17: a person is a kind of animal&lt;/font&gt;&lt;/div&gt;&lt;div style=&quot;font-size: 18px;&quot;&gt;&lt;font style=&quot;font-size: 18px;&quot;&gt;sent18: the muscular system is a kind of body system&lt;/font&gt;&lt;/div&gt;&lt;div style=&quot;font-size: 18px;&quot;&gt;&lt;font style=&quot;font-size: 18px;&quot;&gt;sent19: the function of something is what that something is used to do&lt;/font&gt;&lt;/div&gt;&lt;div style=&quot;font-size: 18px;&quot;&gt;&lt;font style=&quot;font-size: 18px;&quot;&gt;sent20: the skeletal system is used to provide protection / shape / support for animals&lt;/font&gt;&lt;/div&gt;&lt;div style=&quot;font-size: 18px;&quot;&gt;&lt;font style=&quot;font-size: 18px;&quot;&gt;sent21: the nervous system sends observations in the form of electrical signals to the rest of the body&lt;/font&gt;&lt;/div&gt;&lt;div style=&quot;font-size: 18px;&quot;&gt;&lt;font style=&quot;font-size: 18px;&quot;&gt;sent22: if something has the ability to do something else , then that something can do that something else&lt;/font&gt;&lt;/div&gt;&lt;div style=&quot;font-size: 18px;&quot;&gt;&lt;font style=&quot;font-size: 18px;&quot;&gt;sent23: internal organs are a part of the body&lt;/font&gt;&lt;/div&gt;&lt;div style=&quot;font-size: 18px;&quot;&gt;&lt;font style=&quot;font-size: 18px;&quot;&gt;sent24: organ system means body system&lt;/font&gt;&lt;/div&gt;&lt;div style=&quot;font-size: 18px;&quot;&gt;&lt;font style=&quot;font-size: 18px;&quot;&gt;sent25: motion / movement means moving / to move&lt;/font&gt;&lt;/div&gt;&lt;div style=&quot;font-size: 18px;&quot;&gt;&lt;font style=&quot;font-size: 18px;&quot;&gt;&lt;br&gt;&lt;/font&gt;&lt;/div&gt;&lt;div style=&quot;font-size: 18px;&quot;&gt;&lt;font style=&quot;font-size: 18px;&quot;&gt;Hypothesis: the nervous system is used for coordinating the muscles&lt;/font&gt;&lt;/div&gt;" style="text;html=1;align=left;verticalAlign=middle;whiteSpace=wrap;rounded=0;" vertex="1" parent="MjDweA22UZ_13ylLr9Ut-1">
          <mxGeometry x="28.78" y="31.07" width="601.22" height="818.93" as="geometry" />
        </mxCell>
        <mxCell id="MjDweA22UZ_13ylLr9Ut-4" value="" style="group" vertex="1" connectable="0" parent="1">
          <mxGeometry x="870" y="-100" width="340" height="140" as="geometry" />
        </mxCell>
        <mxCell id="MjDweA22UZ_13ylLr9Ut-5" value="" style="rounded=1;whiteSpace=wrap;html=1;fillColor=#d5e8d4;strokeColor=#82b366;" vertex="1" parent="MjDweA22UZ_13ylLr9Ut-4">
          <mxGeometry x="-20" y="40" width="340" height="90" as="geometry" />
        </mxCell>
        <mxCell id="MjDweA22UZ_13ylLr9Ut-6" value="&lt;font style=&quot;font-size: 18px;&quot;&gt;the muscular system is a part of the body (-0.06)&lt;/font&gt;" style="text;html=1;align=center;verticalAlign=middle;whiteSpace=wrap;rounded=0;" vertex="1" parent="MjDweA22UZ_13ylLr9Ut-4">
          <mxGeometry x="28.333333333333332" y="35" width="283.3333333333333" height="81.66666666666667" as="geometry" />
        </mxCell>
        <mxCell id="MjDweA22UZ_13ylLr9Ut-7" value="" style="group" vertex="1" connectable="0" parent="1">
          <mxGeometry x="860" y="100" width="340" height="140" as="geometry" />
        </mxCell>
        <mxCell id="MjDweA22UZ_13ylLr9Ut-8" value="" style="rounded=1;whiteSpace=wrap;html=1;fillColor=#f8cecc;strokeColor=#b85450;" vertex="1" parent="MjDweA22UZ_13ylLr9Ut-7">
          <mxGeometry x="-10" y="30" width="330" height="90" as="geometry" />
        </mxCell>
        <mxCell id="MjDweA22UZ_13ylLr9Ut-9" value="&lt;font style=&quot;font-size: 18px;&quot;&gt;the muscular system is a kind of body system that contains muscles&lt;/font&gt;&lt;div&gt;&lt;font style=&quot;font-size: 18px;&quot;&gt;(-0.36)&lt;/font&gt;&lt;/div&gt;" style="text;html=1;align=center;verticalAlign=middle;whiteSpace=wrap;rounded=0;" vertex="1" parent="MjDweA22UZ_13ylLr9Ut-7">
          <mxGeometry x="28.333333333333332" y="35" width="283.3333333333333" height="81.66666666666667" as="geometry" />
        </mxCell>
        <mxCell id="MjDweA22UZ_13ylLr9Ut-10" value="" style="group" vertex="1" connectable="0" parent="1">
          <mxGeometry x="860" y="280" width="340" height="140" as="geometry" />
        </mxCell>
        <mxCell id="MjDweA22UZ_13ylLr9Ut-11" value="" style="rounded=1;whiteSpace=wrap;html=1;fillColor=#fff2cc;strokeColor=#d6b656;" vertex="1" parent="MjDweA22UZ_13ylLr9Ut-10">
          <mxGeometry x="-10" y="40" width="330" height="70" as="geometry" />
        </mxCell>
        <mxCell id="MjDweA22UZ_13ylLr9Ut-12" value="&lt;span style=&quot;font-size: 18px;&quot;&gt;the muscular system is a part of the body (-0.36)&lt;/span&gt;" style="text;html=1;align=center;verticalAlign=middle;whiteSpace=wrap;rounded=0;" vertex="1" parent="MjDweA22UZ_13ylLr9Ut-10">
          <mxGeometry x="28.333333333333332" y="35" width="283.3333333333333" height="81.66666666666667" as="geometry" />
        </mxCell>
        <mxCell id="MjDweA22UZ_13ylLr9Ut-13" value="" style="endArrow=classic;html=1;rounded=0;entryX=1;entryY=0.5;entryDx=0;entryDy=0;exitX=-0.008;exitY=0.438;exitDx=0;exitDy=0;exitPerimeter=0;strokeWidth=5;fillColor=#d5e8d4;strokeColor=#82b366;" edge="1" parent="1" source="MjDweA22UZ_13ylLr9Ut-3" target="MjDweA22UZ_13ylLr9Ut-5">
          <mxGeometry width="50" height="50" relative="1" as="geometry">
            <mxPoint x="1260" y="170" as="sourcePoint" />
            <mxPoint x="1370" y="140" as="targetPoint" />
          </mxGeometry>
        </mxCell>
        <mxCell id="MjDweA22UZ_13ylLr9Ut-14" value="" style="endArrow=classic;html=1;rounded=0;strokeWidth=5;fillColor=#d5e8d4;strokeColor=#82b366;exitX=-0.006;exitY=0.594;exitDx=0;exitDy=0;exitPerimeter=0;" edge="1" parent="1" source="MjDweA22UZ_13ylLr9Ut-3">
          <mxGeometry width="50" height="50" relative="1" as="geometry">
            <mxPoint x="1260" y="210" as="sourcePoint" />
            <mxPoint x="1190" y="10" as="targetPoint" />
          </mxGeometry>
        </mxCell>
        <mxCell id="MjDweA22UZ_13ylLr9Ut-15" value="" style="endArrow=classic;html=1;rounded=0;strokeWidth=5;fillColor=#f8cecc;strokeColor=#b85450;entryX=0.994;entryY=0.64;entryDx=0;entryDy=0;entryPerimeter=0;" edge="1" parent="1" target="MjDweA22UZ_13ylLr9Ut-8">
          <mxGeometry width="50" height="50" relative="1" as="geometry">
            <mxPoint x="1290" y="300" as="sourcePoint" />
            <mxPoint x="1190" y="190" as="targetPoint" />
          </mxGeometry>
        </mxCell>
        <mxCell id="MjDweA22UZ_13ylLr9Ut-16" value="" style="endArrow=classic;html=1;rounded=0;strokeWidth=5;fillColor=#f8cecc;strokeColor=#b85450;exitX=0;exitY=0.25;exitDx=0;exitDy=0;entryX=1;entryY=0.5;entryDx=0;entryDy=0;" edge="1" parent="1" source="MjDweA22UZ_13ylLr9Ut-3" target="MjDweA22UZ_13ylLr9Ut-8">
          <mxGeometry width="50" height="50" relative="1" as="geometry">
            <mxPoint x="1300" y="310" as="sourcePoint" />
            <mxPoint x="1200" y="200" as="targetPoint" />
          </mxGeometry>
        </mxCell>
        <mxCell id="MjDweA22UZ_13ylLr9Ut-17" value="" style="endArrow=classic;html=1;rounded=0;strokeWidth=5;fillColor=#fff2cc;strokeColor=#d6b656;entryX=1;entryY=0.75;entryDx=0;entryDy=0;exitX=-0.008;exitY=0.599;exitDx=0;exitDy=0;exitPerimeter=0;" edge="1" parent="1" source="MjDweA22UZ_13ylLr9Ut-3" target="MjDweA22UZ_13ylLr9Ut-11">
          <mxGeometry width="50" height="50" relative="1" as="geometry">
            <mxPoint x="1300" y="310" as="sourcePoint" />
            <mxPoint x="1188" y="198" as="targetPoint" />
          </mxGeometry>
        </mxCell>
        <mxCell id="MjDweA22UZ_13ylLr9Ut-18" value="" style="endArrow=classic;html=1;rounded=0;strokeWidth=5;fillColor=#fff2cc;strokeColor=#d6b656;entryX=1;entryY=0;entryDx=0;entryDy=0;" edge="1" parent="1" target="MjDweA22UZ_13ylLr9Ut-11">
          <mxGeometry width="50" height="50" relative="1" as="geometry">
            <mxPoint x="1300" y="20" as="sourcePoint" />
            <mxPoint x="1190" y="185" as="targetPoint" />
          </mxGeometry>
        </mxCell>
        <mxCell id="MjDweA22UZ_13ylLr9Ut-19" value="" style="endArrow=classic;html=1;rounded=0;entryX=1;entryY=0.25;entryDx=0;entryDy=0;strokeWidth=5;fillColor=#fff2cc;strokeColor=#d6b656;" edge="1" parent="1" target="MjDweA22UZ_13ylLr9Ut-11">
          <mxGeometry width="50" height="50" relative="1" as="geometry">
            <mxPoint x="1300" y="170" as="sourcePoint" />
            <mxPoint x="1200" y="-10" as="targetPoint" />
          </mxGeometry>
        </mxCell>
      </root>
    </mxGraphModel>
  </diagram>
  <diagram id="yTrJd5cS-txTzPAPJMus" name="Page-8">
    <mxGraphModel dx="1364" dy="1859" grid="1" gridSize="10" guides="1" tooltips="1" connect="1" arrows="1" fold="1" page="1" pageScale="1" pageWidth="850" pageHeight="1100" math="0" shadow="0">
      <root>
        <mxCell id="0" />
        <mxCell id="1" parent="0" />
        <mxCell id="3viwoH5-S8K1EGojAs7Y-1" value="" style="rounded=0;whiteSpace=wrap;html=1;align=left;fillColor=#f5f5f5;fontColor=#333333;strokeColor=#666666;" vertex="1" parent="1">
          <mxGeometry x="90" y="-170" width="630" height="760" as="geometry" />
        </mxCell>
        <mxCell id="3viwoH5-S8K1EGojAs7Y-2" value="&lt;div style=&quot;font-size: 18px;&quot;&gt;&lt;font style=&quot;font-size: 18px;&quot;&gt;sent1: the spinal cord is a part of the central nervous system&lt;/font&gt;&lt;/div&gt;&lt;div style=&quot;font-size: 18px;&quot;&gt;&lt;font style=&quot;font-size: 18px;&quot;&gt;sent2: the brain is a part of the body&lt;/font&gt;&lt;/div&gt;&lt;div style=&quot;font-size: 18px;&quot;&gt;&lt;font style=&quot;font-size: 18px;&quot;&gt;sent3: an animal &#39;s brain controls that animal&lt;/font&gt;&lt;/div&gt;&lt;div style=&quot;font-size: 18px;&quot;&gt;&lt;font style=&quot;font-size: 18px;&quot;&gt;sent4: if something performs a task then that task is that something &#39;s function&lt;/font&gt;&lt;/div&gt;&lt;div style=&quot;font-size: 18px;&quot;&gt;&lt;font style=&quot;font-size: 18px;&quot;&gt;sent5: the skeletal system is used to give structure for the body of animals&lt;/font&gt;&lt;/div&gt;&lt;div style=&quot;font-size: 18px;&quot;&gt;&lt;font style=&quot;font-size: 18px;&quot;&gt;sent6: the muscular system contains muscles&lt;/font&gt;&lt;/div&gt;&lt;div style=&quot;font-size: 18px;&quot;&gt;&lt;font style=&quot;font-size: 18px;&quot;&gt;sent7: nerves can be used to feel heat and pressure on the skin&lt;/font&gt;&lt;/div&gt;&lt;div style=&quot;font-size: 18px;&quot;&gt;&lt;font style=&quot;font-size: 18px;&quot;&gt;sent8: system means a set of objects&lt;/font&gt;&lt;/div&gt;&lt;div style=&quot;font-size: 18px;&quot;&gt;&lt;font style=&quot;font-size: 18px;&quot;&gt;sent9: physical fitness is similar to athletic ability&lt;/font&gt;&lt;/div&gt;&lt;div style=&quot;font-size: 18px;&quot;&gt;&lt;font style=&quot;font-size: 18px;&quot;&gt;sent10: to control something can mean to coordinate something&lt;/font&gt;&lt;/div&gt;&lt;div style=&quot;font-size: 18px;&quot;&gt;&lt;font style=&quot;font-size: 18px;&quot;&gt;sent11: the skeletal system is a kind of body system&lt;/font&gt;&lt;/div&gt;&lt;div style=&quot;font-size: 18px;&quot;&gt;&lt;font style=&quot;font-size: 18px;&quot;&gt;sent12: the brain can control animal body through the nervous system&lt;/font&gt;&lt;/div&gt;&lt;div style=&quot;font-size: 18px;&quot;&gt;&lt;font style=&quot;font-size: 18px;&quot;&gt;sent13: a body system is a part of the body&lt;/font&gt;&lt;/div&gt;&lt;div style=&quot;font-size: 18px;&quot;&gt;&lt;font style=&quot;font-size: 18px;&quot;&gt;sent14: a skeletal system is a part of an animal&lt;/font&gt;&lt;/div&gt;&lt;div style=&quot;font-size: 18px;&quot;&gt;&lt;font style=&quot;font-size: 18px;&quot;&gt;sent15: skeletal system is made of bones&lt;/font&gt;&lt;/div&gt;&lt;div style=&quot;font-size: 18px;&quot;&gt;&lt;font style=&quot;font-size: 18px;&quot;&gt;sent16: if an organism can do something , then that organism is able to do that something&lt;/font&gt;&lt;/div&gt;&lt;div style=&quot;font-size: 18px;&quot;&gt;&lt;font style=&quot;font-size: 18px;&quot;&gt;sent17: a person is a kind of animal&lt;/font&gt;&lt;/div&gt;&lt;div style=&quot;font-size: 18px;&quot;&gt;&lt;font style=&quot;font-size: 18px;&quot;&gt;sent18: the muscular system is a kind of body system&lt;/font&gt;&lt;/div&gt;&lt;div style=&quot;font-size: 18px;&quot;&gt;&lt;font style=&quot;font-size: 18px;&quot;&gt;sent19: the function of something is what that something is used to do&lt;/font&gt;&lt;/div&gt;&lt;div style=&quot;font-size: 18px;&quot;&gt;&lt;font style=&quot;font-size: 18px;&quot;&gt;sent20: the skeletal system is used to provide protection / shape / support for animals&lt;/font&gt;&lt;/div&gt;&lt;div style=&quot;font-size: 18px;&quot;&gt;&lt;font style=&quot;font-size: 18px;&quot;&gt;sent21: the nervous system sends observations in the form of electrical signals to the rest of the body&lt;/font&gt;&lt;/div&gt;&lt;div style=&quot;font-size: 18px;&quot;&gt;&lt;font style=&quot;font-size: 18px;&quot;&gt;sent22: if something has the ability to do something else , then that something can do that something else&lt;/font&gt;&lt;/div&gt;&lt;div style=&quot;font-size: 18px;&quot;&gt;&lt;font style=&quot;font-size: 18px;&quot;&gt;sent23: internal organs are a part of the body&lt;/font&gt;&lt;/div&gt;&lt;div style=&quot;font-size: 18px;&quot;&gt;&lt;font style=&quot;font-size: 18px;&quot;&gt;sent24: organ system means body system&lt;/font&gt;&lt;/div&gt;&lt;div style=&quot;font-size: 18px;&quot;&gt;&lt;font style=&quot;font-size: 18px;&quot;&gt;sent25: motion / movement means moving / to move&lt;/font&gt;&lt;/div&gt;&lt;div style=&quot;font-size: 18px;&quot;&gt;&lt;font style=&quot;font-size: 18px;&quot;&gt;&lt;br&gt;&lt;/font&gt;&lt;/div&gt;&lt;div style=&quot;font-size: 18px;&quot;&gt;&lt;font style=&quot;font-size: 18px;&quot;&gt;Hypothesis: the nervous system is used for coordinating the muscles&lt;/font&gt;&lt;/div&gt;" style="text;html=1;align=left;verticalAlign=middle;whiteSpace=wrap;rounded=0;" vertex="1" parent="1">
          <mxGeometry x="118.78" y="-188.93" width="601.22" height="818.93" as="geometry" />
        </mxCell>
        <mxCell id="3viwoH5-S8K1EGojAs7Y-3" value="h" style="ellipse;whiteSpace=wrap;html=1;fillColor=#d5e8d4;strokeColor=#82b366;" vertex="1" parent="1">
          <mxGeometry x="1030" y="50" width="80" height="80" as="geometry" />
        </mxCell>
        <mxCell id="3viwoH5-S8K1EGojAs7Y-5" value="int1" style="ellipse;whiteSpace=wrap;html=1;fillColor=#dae8fc;strokeColor=#6c8ebf;" vertex="1" parent="1">
          <mxGeometry x="930" y="160" width="80" height="80" as="geometry" />
        </mxCell>
        <mxCell id="3viwoH5-S8K1EGojAs7Y-6" value="int2" style="ellipse;whiteSpace=wrap;html=1;fillColor=#dae8fc;strokeColor=#6c8ebf;" vertex="1" parent="1">
          <mxGeometry x="1120" y="160" width="80" height="80" as="geometry" />
        </mxCell>
        <mxCell id="3viwoH5-S8K1EGojAs7Y-7" value="sent3" style="ellipse;whiteSpace=wrap;html=1;fillColor=#dae8fc;strokeColor=#6c8ebf;" vertex="1" parent="1">
          <mxGeometry x="1220" y="290" width="80" height="80" as="geometry" />
        </mxCell>
        <mxCell id="3viwoH5-S8K1EGojAs7Y-8" value="sent2" style="ellipse;whiteSpace=wrap;html=1;fillColor=#dae8fc;strokeColor=#6c8ebf;" vertex="1" parent="1">
          <mxGeometry x="1030" y="290" width="80" height="80" as="geometry" />
        </mxCell>
        <mxCell id="3viwoH5-S8K1EGojAs7Y-9" value="sent1&lt;span style=&quot;white-space: pre;&quot;&gt;&#x9;&lt;/span&gt;&lt;span style=&quot;white-space: pre;&quot;&gt;&#x9;&lt;/span&gt;&lt;span style=&quot;white-space: pre;&quot;&gt;&#x9;&lt;/span&gt;" style="ellipse;whiteSpace=wrap;html=1;fillColor=#dae8fc;strokeColor=#6c8ebf;" vertex="1" parent="1">
          <mxGeometry x="850" y="290" width="80" height="80" as="geometry" />
        </mxCell>
        <mxCell id="3viwoH5-S8K1EGojAs7Y-10" value="" style="endArrow=classic;html=1;rounded=0;exitX=0.5;exitY=0;exitDx=0;exitDy=0;entryX=0.25;entryY=0.938;entryDx=0;entryDy=0;entryPerimeter=0;fillColor=#dae8fc;strokeColor=#6c8ebf;" edge="1" parent="1" source="3viwoH5-S8K1EGojAs7Y-9" target="3viwoH5-S8K1EGojAs7Y-5">
          <mxGeometry width="50" height="50" relative="1" as="geometry">
            <mxPoint x="980" y="250" as="sourcePoint" />
            <mxPoint x="1030" y="200" as="targetPoint" />
          </mxGeometry>
        </mxCell>
        <mxCell id="3viwoH5-S8K1EGojAs7Y-11" value="" style="endArrow=classic;html=1;rounded=0;exitX=0;exitY=0;exitDx=0;exitDy=0;entryX=0.5;entryY=1;entryDx=0;entryDy=0;fillColor=#dae8fc;strokeColor=#6c8ebf;" edge="1" parent="1" source="3viwoH5-S8K1EGojAs7Y-7" target="3viwoH5-S8K1EGojAs7Y-6">
          <mxGeometry width="50" height="50" relative="1" as="geometry">
            <mxPoint x="900" y="300" as="sourcePoint" />
            <mxPoint x="960" y="245" as="targetPoint" />
          </mxGeometry>
        </mxCell>
        <mxCell id="3viwoH5-S8K1EGojAs7Y-12" value="" style="endArrow=classic;html=1;rounded=0;exitX=1;exitY=0;exitDx=0;exitDy=0;entryX=0.5;entryY=1;entryDx=0;entryDy=0;fillColor=#dae8fc;strokeColor=#6c8ebf;" edge="1" parent="1" source="3viwoH5-S8K1EGojAs7Y-8" target="3viwoH5-S8K1EGojAs7Y-6">
          <mxGeometry width="50" height="50" relative="1" as="geometry">
            <mxPoint x="910" y="310" as="sourcePoint" />
            <mxPoint x="970" y="255" as="targetPoint" />
          </mxGeometry>
        </mxCell>
        <mxCell id="3viwoH5-S8K1EGojAs7Y-13" value="" style="endArrow=classic;html=1;rounded=0;exitX=0;exitY=0;exitDx=0;exitDy=0;entryX=1;entryY=1;entryDx=0;entryDy=0;fillColor=#dae8fc;strokeColor=#6c8ebf;" edge="1" parent="1" source="3viwoH5-S8K1EGojAs7Y-8" target="3viwoH5-S8K1EGojAs7Y-5">
          <mxGeometry width="50" height="50" relative="1" as="geometry">
            <mxPoint x="920" y="320" as="sourcePoint" />
            <mxPoint x="980" y="265" as="targetPoint" />
          </mxGeometry>
        </mxCell>
        <mxCell id="3viwoH5-S8K1EGojAs7Y-14" value="" style="endArrow=classic;html=1;rounded=0;exitX=1;exitY=0;exitDx=0;exitDy=0;entryX=0.5;entryY=1;entryDx=0;entryDy=0;" edge="1" parent="1" source="3viwoH5-S8K1EGojAs7Y-5" target="3viwoH5-S8K1EGojAs7Y-3">
          <mxGeometry width="50" height="50" relative="1" as="geometry">
            <mxPoint x="930" y="330" as="sourcePoint" />
            <mxPoint x="990" y="275" as="targetPoint" />
          </mxGeometry>
        </mxCell>
        <mxCell id="3viwoH5-S8K1EGojAs7Y-15" value="" style="endArrow=classic;html=1;rounded=0;exitX=0;exitY=0;exitDx=0;exitDy=0;entryX=0.5;entryY=1;entryDx=0;entryDy=0;" edge="1" parent="1" source="3viwoH5-S8K1EGojAs7Y-6" target="3viwoH5-S8K1EGojAs7Y-3">
          <mxGeometry width="50" height="50" relative="1" as="geometry">
            <mxPoint x="940" y="340" as="sourcePoint" />
            <mxPoint x="1000" y="285" as="targetPoint" />
          </mxGeometry>
        </mxCell>
        <mxCell id="3viwoH5-S8K1EGojAs7Y-16" value="" style="rounded=0;whiteSpace=wrap;html=1;fillColor=#fff2cc;strokeColor=#d6b656;" vertex="1" parent="1">
          <mxGeometry x="820" y="460" width="440" height="100" as="geometry" />
        </mxCell>
        <mxCell id="3viwoH5-S8K1EGojAs7Y-17" value="&lt;font style=&quot;font-size: 18px;&quot;&gt;int1:&amp;nbsp;&amp;nbsp;motion / movement means moving / to move&lt;br&gt;int2:&amp;nbsp;a skeletal system is a part of an animal&lt;br&gt;&amp;nbsp;&lt;/font&gt;" style="text;html=1;strokeColor=none;fillColor=none;align=left;verticalAlign=middle;whiteSpace=wrap;rounded=0;" vertex="1" parent="1">
          <mxGeometry x="835" y="475" width="440" height="70" as="geometry" />
        </mxCell>
      </root>
    </mxGraphModel>
  </diagram>
</mxfile>
